<svg width="260" height="219" viewBox="0 0 260 219" fill="none" xmlns="http://www.w3.org/2000/svg">
<path d="M106 40.2698L34.64 9.50977V124.51L106 155.29L105.92 133.09L58.45 112.79L58.5 41.7898L106 62.2598V40.2698Z" fill="#F8F8F8" stroke="#1D1D1B" stroke-linecap="round" stroke-linejoin="round"/>
<path d="M34.64 9.51L58.48 0.5L129.88 31.28L105.99 40.28L34.64 9.51Z" fill="#F8F8F8" stroke="#1D1D1B" stroke-linecap="round" stroke-linejoin="round"/>
<path d="M58.48 112.79L79.26 99.6201L129.88 121.44L106 133.14L58.48 112.79Z" fill="black" stroke="#1D1D1B" stroke-width="0.75" stroke-miterlimit="10"/>
<path d="M58.48 112.79L79.26 99.6201V50.7501L58.53 41.8101L58.48 112.79Z" fill="black" stroke="#1D1D1B" stroke-width="0.75" stroke-miterlimit="10"/>
<path d="M106 40.27L129.89 31.27L129.78 52L106 62.26V40.27Z" fill="#F9F9F9" stroke="#1D1D1B" stroke-width="0.75" stroke-linecap="round" stroke-linejoin="round"/>
<path d="M106 133.14L129.89 121.44L129.79 142.44L105.89 155.37C105.923 147.957 105.96 140.547 106 133.14Z" fill="#F9F9F9" stroke="#1D1D1B" stroke-width="0.75" stroke-linecap="round" stroke-linejoin="round"/>
<path d="M129.88 165.55V50.5502L152.52 40.8802L177.34 50.5102L201.23 19.8302L225.13 9.49023V124.49L201.23 134.76V73.5202L177.45 93.8902L153.88 89.3802V155.18L129.88 165.55Z" fill="#F8F8F8" stroke="#1D1D1B" stroke-linecap="round" stroke-linejoin="round"/>
<path d="M201.23 134.76L177.34 124.49C177.38 114.29 177.417 104.09 177.45 93.89L201.23 73.52V134.76Z" fill="#F7F7F7" stroke="#1D1D1B" stroke-linecap="round" stroke-linejoin="round"/>
<path d="M129.88 165.55L105.88 155.35C105.92 116.99 105.957 78.63 105.99 40.27L129.88 50.57V165.55Z" fill="#F7F7F7" stroke="#1D1D1B" stroke-linecap="round" stroke-linejoin="round"/>
<path d="M201.23 19.8498L177.34 9.50977L201.23 0.509766L225.13 9.50977L201.23 19.8498Z" fill="#F8F8F8" stroke="#1D1D1B" stroke-linecap="round" stroke-linejoin="round"/>
<path d="M177.34 9.50977L153.88 40.2598L177.34 50.5298L201.23 19.8498L177.34 9.50977Z" fill="#F7F7F7" stroke="#1D1D1B" stroke-linecap="round" stroke-linejoin="round"/>
<path d="M129.88 50.5698L152.52 40.8998L129.88 31.2798L105.99 40.2798L129.88 50.5698Z" fill="#F8F8F8" stroke="#1D1D1B" stroke-linecap="round" stroke-linejoin="round"/>
<path d="M129.88 31.2798L153.88 40.2798L177.34 50.5498C169.253 47.5165 160.98 44.2998 152.52 40.8998C144.727 37.7265 137.18 34.5198 129.88 31.2798Z" fill="#F8F8F8" stroke="#1D1D1B" stroke-linecap="round" stroke-linejoin="round"/>
<path d="M58.48 112.79L79.26 99.6201V50.7501L58.53 41.8101L58.48 112.79Z" fill="#F7F7F7" stroke="#1D1D1B" stroke-linecap="round" stroke-linejoin="round"/>
<path d="M58.48 112.79L79.26 99.6201L105.57 111.54L105.99 133.14L58.48 112.79Z" fill="#F7F7F7" stroke="#1D1D1B" stroke-linecap="round" stroke-linejoin="round"/>
<path d="M12.9023 205.61H8.67742C6.63606 205.61 5.05982 205.067 3.9487 203.982C2.83758 202.897 2.28202 201.333 2.28202 199.292V187.005C2.28202 184.964 2.83758 183.4 3.9487 182.315C5.05982 181.23 6.63606 180.687 8.67742 180.687H12.9023C14.9178 180.687 16.4811 181.243 17.5922 182.354C18.7292 183.439 19.2977 184.99 19.2977 187.005V188.827C19.2977 189.395 19.0134 189.68 18.4449 189.68H15.1891C14.6465 189.68 14.3751 189.395 14.3751 188.827V187.238C14.3751 186.411 14.1943 185.829 13.8325 185.493C13.4966 185.132 12.9152 184.951 12.0883 184.951H9.45262C8.65158 184.951 8.07018 185.132 7.70842 185.493C7.3725 185.829 7.20454 186.411 7.20454 187.238V199.059C7.20454 199.886 7.3725 200.481 7.70842 200.842C8.07018 201.178 8.65158 201.346 9.45262 201.346H12.0883C12.9152 201.346 13.4966 201.178 13.8325 200.842C14.1943 200.481 14.3751 199.886 14.3751 199.059V197.47C14.3751 196.902 14.6465 196.618 15.1891 196.618H18.4449C19.0134 196.618 19.2977 196.902 19.2977 197.47V199.292C19.2977 201.308 18.7292 202.871 17.5922 203.982C16.4811 205.067 14.9178 205.61 12.9023 205.61ZM27.6344 205.61H24.3398C23.7972 205.61 23.5258 205.339 23.5258 204.796V181.501C23.5258 180.959 23.7972 180.687 24.3398 180.687H33.5647C35.5802 180.687 37.1564 181.243 38.2934 182.354C39.4304 183.465 39.9988 185.028 39.9988 187.044V190.067C39.9988 192.987 38.849 194.925 36.5492 195.881V196.036L40.6965 204.68C40.9291 205.3 40.7094 205.61 40.0376 205.61H36.898C36.4329 205.61 36.097 205.558 35.8903 205.455C35.6836 205.351 35.5156 205.132 35.3864 204.796L31.5104 196.424H28.9135C28.6034 196.424 28.4484 196.566 28.4484 196.85V204.796C28.4484 205.339 28.177 205.61 27.6344 205.61ZM28.8747 192.47H32.6732C33.5001 192.47 34.1073 192.302 34.4949 191.966C34.8825 191.605 35.0763 191.036 35.0763 190.261V187.238C35.0763 186.437 34.8825 185.855 34.4949 185.493C34.1073 185.132 33.5001 184.951 32.6732 184.951H28.8747C28.5905 184.951 28.4484 185.093 28.4484 185.377V192.044C28.4484 192.328 28.5905 192.47 28.8747 192.47ZM49.839 181.501V204.796C49.839 205.339 49.5677 205.61 49.0251 205.61H45.7305C45.1878 205.61 44.9165 205.339 44.9165 204.796V181.501C44.9165 180.959 45.1878 180.687 45.7305 180.687H49.0251C49.5677 180.687 49.839 180.959 49.839 181.501ZM59.1647 205.61H55.8701C55.3275 205.61 55.0562 205.339 55.0562 204.796V181.501C55.0562 180.959 55.3275 180.687 55.8701 180.687H65.3276C67.3431 180.687 68.9064 181.243 70.0175 182.354C71.1287 183.439 71.6842 184.99 71.6842 187.005V190.726C71.6842 192.742 71.1287 194.305 70.0175 195.416C68.9064 196.501 67.3431 197.044 65.3276 197.044H60.4438C60.1337 197.044 59.9787 197.186 59.9787 197.47V204.796C59.9787 205.339 59.7074 205.61 59.1647 205.61ZM60.4051 192.742H64.5136C65.3405 192.742 65.9219 192.574 66.2578 192.238C66.5937 191.876 66.7617 191.295 66.7617 190.493V187.238C66.7617 186.411 66.5937 185.829 66.2578 185.493C65.9219 185.132 65.3405 184.951 64.5136 184.951H60.4051C60.1208 184.951 59.9787 185.093 59.9787 185.377V192.315C59.9787 192.599 60.1208 192.742 60.4051 192.742ZM83.3228 205.61H80.067C79.4985 205.61 79.2143 205.339 79.2143 204.796V185.377C79.2143 185.093 79.0721 184.951 78.7879 184.951H74.3693C73.8266 184.951 73.5553 184.679 73.5553 184.137V181.501C73.5553 180.959 73.8266 180.687 74.3693 180.687H89.0205C89.5632 180.687 89.8345 180.959 89.8345 181.501V184.137C89.8345 184.679 89.5632 184.951 89.0205 184.951H84.6019C84.2918 184.951 84.1368 185.093 84.1368 185.377V204.796C84.1368 205.339 83.8655 205.61 83.3228 205.61ZM99.5772 201.346H102.329C103.156 201.346 103.737 201.178 104.073 200.842C104.435 200.481 104.616 199.886 104.616 199.059V187.238C104.616 186.411 104.435 185.829 104.073 185.493C103.737 185.132 103.156 184.951 102.329 184.951H99.5772C98.7503 184.951 98.1689 185.132 97.833 185.493C97.4971 185.829 97.3291 186.411 97.3291 187.238V199.059C97.3291 199.886 97.4971 200.481 97.833 200.842C98.1689 201.178 98.7503 201.346 99.5772 201.346ZM103.143 205.61H98.802C96.7606 205.61 95.1844 205.067 94.0733 203.982C92.9621 202.897 92.4066 201.333 92.4066 199.292V187.005C92.4066 184.964 92.9621 183.4 94.0733 182.315C95.1844 181.23 96.7606 180.687 98.802 180.687H103.143C105.184 180.687 106.761 181.23 107.872 182.315C108.983 183.4 109.539 184.964 109.539 187.005V199.292C109.539 201.333 108.983 202.897 107.872 203.982C106.761 205.067 105.184 205.61 103.143 205.61ZM130.731 180.687H136.467C137.01 180.687 137.281 180.959 137.281 181.501V204.796C137.281 205.339 137.01 205.61 136.467 205.61H133.289C132.746 205.61 132.475 205.339 132.475 204.796V186.424H132.32L128.366 199.408C128.211 199.925 127.888 200.183 127.397 200.183H124.142C123.651 200.183 123.328 199.925 123.173 199.408L119.142 186.385H118.987V204.796C118.987 205.106 118.935 205.326 118.832 205.455C118.728 205.558 118.509 205.61 118.173 205.61H114.994C114.452 205.61 114.18 205.339 114.18 204.796V181.501C114.18 180.959 114.452 180.687 114.994 180.687H120.77C121.131 180.687 121.377 180.868 121.506 181.23L125.615 194.912H125.847L129.994 181.23C130.072 180.868 130.317 180.687 130.731 180.687ZM147.42 181.501V204.796C147.42 205.339 147.149 205.61 146.606 205.61H143.312C142.769 205.61 142.498 205.339 142.498 204.796V181.501C142.498 180.959 142.769 180.687 143.312 180.687H146.606C147.149 180.687 147.42 180.959 147.42 181.501ZM156.669 205.61H153.451C152.909 205.61 152.638 205.339 152.638 204.796V181.501C152.638 180.959 152.909 180.687 153.451 180.687H156.358C156.901 180.687 157.263 180.868 157.444 181.23L165.273 195.92H165.428V181.501C165.428 180.959 165.7 180.687 166.242 180.687H169.459C170.002 180.687 170.273 180.959 170.273 181.501V204.796C170.273 205.339 170.002 205.61 169.459 205.61H166.63C166.061 205.61 165.648 205.351 165.39 204.835L157.638 190.416H157.483V204.796C157.483 205.339 157.211 205.61 156.669 205.61ZM177.908 205.61H174.187C173.721 205.61 173.566 205.339 173.721 204.796L179.846 181.501C180.026 180.959 180.414 180.687 181.008 180.687H186.163C186.809 180.687 187.197 180.959 187.326 181.501L193.45 204.796C193.605 205.339 193.45 205.61 192.985 205.61H189.264C188.98 205.61 188.786 205.558 188.683 205.455C188.579 205.326 188.502 205.106 188.45 204.796L187.365 200.532H179.807L178.721 204.796C178.67 205.106 178.579 205.326 178.45 205.455C178.347 205.558 178.166 205.61 177.908 205.61ZM183.528 185.377L180.737 196.579H186.473L183.683 185.377H183.528ZM200.917 205.61H197.7C197.157 205.61 196.886 205.339 196.886 204.796V181.501C196.886 180.959 197.157 180.687 197.7 180.687H200.607C201.15 180.687 201.511 180.868 201.692 181.23L209.522 195.92H209.677V181.501C209.677 180.959 209.948 180.687 210.491 180.687H213.708C214.25 180.687 214.522 180.959 214.522 181.501V204.796C214.522 205.339 214.25 205.61 213.708 205.61H210.878C210.31 205.61 209.896 205.351 209.638 204.835L201.886 190.416H201.731V204.796C201.731 205.339 201.46 205.61 200.917 205.61ZM224.908 201.346H229.133C229.96 201.346 230.541 201.178 230.877 200.842C231.239 200.481 231.42 199.886 231.42 199.059V187.238C231.42 186.411 231.239 185.829 230.877 185.493C230.541 185.132 229.96 184.951 229.133 184.951H224.908C224.624 184.951 224.482 185.093 224.482 185.377V200.92C224.482 201.204 224.624 201.346 224.908 201.346ZM219.559 204.796V181.501C219.559 180.959 219.83 180.687 220.373 180.687H229.947C231.962 180.687 233.526 181.243 234.637 182.354C235.774 183.439 236.342 184.99 236.342 187.005V199.292C236.342 201.308 235.774 202.871 234.637 203.982C233.526 205.067 231.962 205.61 229.947 205.61H220.373C219.83 205.61 219.559 205.339 219.559 204.796ZM247.766 201.346H250.518C251.345 201.346 251.926 201.178 252.262 200.842C252.624 200.481 252.805 199.886 252.805 199.059V187.238C252.805 186.411 252.624 185.829 252.262 185.493C251.926 185.132 251.345 184.951 250.518 184.951H247.766C246.939 184.951 246.358 185.132 246.022 185.493C245.686 185.829 245.518 186.411 245.518 187.238V199.059C245.518 199.886 245.686 200.481 246.022 200.842C246.358 201.178 246.939 201.346 247.766 201.346ZM251.332 205.61H246.991C244.949 205.61 243.373 205.067 242.262 203.982C241.151 202.897 240.595 201.333 240.595 199.292V187.005C240.595 184.964 241.151 183.4 242.262 182.315C243.373 181.23 244.949 180.687 246.991 180.687H251.332C253.373 180.687 254.95 181.23 256.061 182.315C257.172 183.4 257.727 184.964 257.727 187.005V199.292C257.727 201.333 257.172 202.897 256.061 203.982C254.95 205.067 253.373 205.61 251.332 205.61Z" fill="white"/>
</svg>
