<svg xmlns="http://www.w3.org/2000/svg" viewBox="0 0 654.41 398.12"><defs><style>.cls-1{fill:#fff;}</style></defs><g id="Capa_2" data-name="Capa 2"><g id="Capa_1-2" data-name="Capa 1"><path class="cls-1" d="M43.12,376.81q-21.06,0-32.09-11.72T0,331.82a51.28,51.28,0,0,1,3.36-19.14,41.27,41.27,0,0,1,9.23-14.2,38.45,38.45,0,0,1,14-8.79,50.36,50.36,0,0,1,17.57-3,56.36,56.36,0,0,1,10,.81,65.68,65.68,0,0,1,7.85,1.87,39.33,39.33,0,0,1,5.61,2.18q2.24,1.13,3.24,1.74L65.18,309a47.39,47.39,0,0,0-9.28-3.62,44.65,44.65,0,0,0-12-1.49,26.78,26.78,0,0,0-8.79,1.49,20,20,0,0,0-7.6,4.8,23.94,23.94,0,0,0-5.3,8.54,35.82,35.82,0,0,0-2,12.71A45.54,45.54,0,0,0,21.5,342.6a23.62,23.62,0,0,0,4.24,8.91,20.37,20.37,0,0,0,7.66,5.92,27.34,27.34,0,0,0,11.46,2.18,52.69,52.69,0,0,0,7.61-.5,55.41,55.41,0,0,0,6-1.19,31,31,0,0,0,4.61-1.55c1.33-.58,2.54-1.12,3.62-1.62L72,370.33a45.55,45.55,0,0,1-11.59,4.48A67.47,67.47,0,0,1,43.12,376.81Z"/><path class="cls-1" d="M121,326c-1.66-.42-3.61-.85-5.86-1.31a35.9,35.9,0,0,0-7.22-.69,33.27,33.27,0,0,0-4.18.32,23.93,23.93,0,0,0-3.68.68v50.1H81.51V313a109.62,109.62,0,0,1,11.77-3.31,68.45,68.45,0,0,1,15.15-1.55c1,0,2.2.06,3.61.18s2.82.3,4.24.5,2.82.46,4.23.75a19.48,19.48,0,0,1,3.62,1.06Z"/><path class="cls-1" d="M152.67,290.57a10.16,10.16,0,0,1-3.31,8,11.81,11.81,0,0,1-15.57,0,11.41,11.41,0,0,1,0-16.07,11.81,11.81,0,0,1,15.57,0A10.16,10.16,0,0,1,152.67,290.57Zm-1.75,84.49H132.35V309.51h18.57Z"/><path class="cls-1" d="M227.57,342.28a48.31,48.31,0,0,1-1.87,13.84,31.32,31.32,0,0,1-5.49,10.72,24.88,24.88,0,0,1-9,7,29,29,0,0,1-12.34,2.49,33.28,33.28,0,0,1-7.23-.75,34.6,34.6,0,0,1-6.48-2.12v24.68H166.62V311.75c1.67-.5,3.57-1,5.74-1.43s4.42-.85,6.79-1.19,4.78-.6,7.23-.81,4.8-.31,7-.31a40.3,40.3,0,0,1,14.46,2.43,29.76,29.76,0,0,1,10.71,6.86,29.38,29.38,0,0,1,6.67,10.78A41.31,41.31,0,0,1,227.57,342.28Zm-18.95.5q0-8.59-3.86-13.77t-11.47-5.17c-1.66,0-3.2.06-4.61.19s-2.57.27-3.49.43V358a16.2,16.2,0,0,0,4.55,1.87,22.3,22.3,0,0,0,5.67.75Q208.63,360.61,208.62,342.78Z"/><path class="cls-1" d="M239.53,293.18l18.57-3v19.32h22.31V325H258.1V348c0,3.9.69,7,2.06,9.34s4.13,3.49,8.28,3.49a34.86,34.86,0,0,0,6.17-.56,32,32,0,0,0,5.8-1.55L283,373.19a51.31,51.31,0,0,1-7.47,2.37,43.84,43.84,0,0,1-10.1,1,33.28,33.28,0,0,1-12.59-2.06,19.71,19.71,0,0,1-8-5.73,21.27,21.27,0,0,1-4.18-8.91,52.62,52.62,0,0,1-1.18-11.59Z"/><path class="cls-1" d="M352.57,342.16a42.55,42.55,0,0,1-2.25,14.15,30.51,30.51,0,0,1-6.48,11,29,29,0,0,1-10.15,7,34,34,0,0,1-13.28,2.5,33.61,33.61,0,0,1-13.15-2.5,29,29,0,0,1-10.15-7,32.12,32.12,0,0,1-6.61-11,40.59,40.59,0,0,1-2.37-14.15,39.11,39.11,0,0,1,2.43-14.08,32.29,32.29,0,0,1,6.73-10.85,30.46,30.46,0,0,1,10.22-7,35,35,0,0,1,25.93,0,29.69,29.69,0,0,1,10.15,7,31.72,31.72,0,0,1,6.61,10.85A40,40,0,0,1,352.57,342.16Zm-18.95,0q0-8.6-3.42-13.52a11.22,11.22,0,0,0-9.79-4.92,11.35,11.35,0,0,0-9.84,4.92q-3.49,4.92-3.49,13.52t3.49,13.65a11.26,11.26,0,0,0,9.84,5,11.14,11.14,0,0,0,9.79-5Q333.62,350.76,333.62,342.16Z"/><path class="cls-1" d="M418.12,360.23a27.87,27.87,0,0,0,6.79-.69,12.43,12.43,0,0,0,4.3-1.86,6.23,6.23,0,0,0,2.24-2.81,9.88,9.88,0,0,0,.62-3.61,8.33,8.33,0,0,0-4-7q-4-2.81-13.71-6.05c-2.83-1-5.65-2.14-8.48-3.43a31,31,0,0,1-7.6-4.86,23.13,23.13,0,0,1-5.48-7.1,22.15,22.15,0,0,1-2.12-10.16,25.26,25.26,0,0,1,2.24-10.78,23,23,0,0,1,6.36-8.16,29,29,0,0,1,10-5.17,44.56,44.56,0,0,1,13.21-1.81,53.7,53.7,0,0,1,15.08,1.87A54.39,54.39,0,0,1,448,292.68L442.42,308a53.22,53.22,0,0,0-8-3.3,35,35,0,0,0-10.65-1.43c-4.66,0-8,.64-10,1.93a6.53,6.53,0,0,0-3.05,5.92,6.77,6.77,0,0,0,1.12,4,10.79,10.79,0,0,0,3.18,2.93,27.1,27.1,0,0,0,4.73,2.37c1.79.71,3.76,1.44,5.93,2.18,4.48,1.67,8.39,3.3,11.71,4.93a31.33,31.33,0,0,1,8.29,5.67,20.52,20.52,0,0,1,4.92,7.6,30.55,30.55,0,0,1,1.62,10.59q0,12.09-8.47,18.76t-25.55,6.67a70.39,70.39,0,0,1-10.35-.69,68.47,68.47,0,0,1-8.16-1.68,47.58,47.58,0,0,1-6.11-2.12,46.84,46.84,0,0,1-4.3-2.12l5.49-15.45a48.77,48.77,0,0,0,9.53,3.8A49.51,49.51,0,0,0,418.12,360.23Z"/><path class="cls-1" d="M525.05,342.28a48.31,48.31,0,0,1-1.87,13.84,31.32,31.32,0,0,1-5.49,10.72,24.88,24.88,0,0,1-9,7,29,29,0,0,1-12.34,2.49,33.28,33.28,0,0,1-7.23-.75,34.6,34.6,0,0,1-6.48-2.12v24.68H464.1V311.75c1.67-.5,3.57-1,5.74-1.43s4.42-.85,6.79-1.19,4.78-.6,7.23-.81,4.8-.31,7-.31a40.3,40.3,0,0,1,14.46,2.43,28.64,28.64,0,0,1,17.38,17.64A41.31,41.31,0,0,1,525.05,342.28Zm-18.95.5q0-8.59-3.86-13.77t-11.46-5.17c-1.67,0-3.21.06-4.62.19s-2.57.27-3.49.43V358a16.2,16.2,0,0,0,4.55,1.87,22.3,22.3,0,0,0,5.67.75Q506.11,360.61,506.1,342.78Z"/><path class="cls-1" d="M599,342.16a42.81,42.81,0,0,1-2.24,14.15,30.68,30.68,0,0,1-6.49,11,29,29,0,0,1-10.15,7,34,34,0,0,1-13.28,2.5,33.56,33.56,0,0,1-13.14-2.5,29,29,0,0,1-10.16-7,32.12,32.12,0,0,1-6.61-11,40.59,40.59,0,0,1-2.36-14.15A39.11,39.11,0,0,1,537,328.08a32,32,0,0,1,6.73-10.85,30.27,30.27,0,0,1,10.22-7,32.87,32.87,0,0,1,12.89-2.49,33.29,33.29,0,0,1,13,2.49,29.69,29.69,0,0,1,10.15,7,31.72,31.72,0,0,1,6.61,10.85A40,40,0,0,1,599,342.16Zm-19,0q0-8.6-3.42-13.52a11.22,11.22,0,0,0-9.79-4.92,11.36,11.36,0,0,0-9.84,4.92q-3.5,4.92-3.49,13.52T557,355.81a11.27,11.27,0,0,0,9.84,5,11.14,11.14,0,0,0,9.79-5Q580,350.76,580,342.16Z"/><path class="cls-1" d="M610.91,293.18l18.57-3v19.32h22.31V325H629.48V348c0,3.9.69,7,2.06,9.34s4.13,3.49,8.29,3.49a35,35,0,0,0,6.17-.56,32.12,32.12,0,0,0,5.79-1.55l2.62,14.45a51.85,51.85,0,0,1-7.48,2.37,43.81,43.81,0,0,1-10.09,1,33.24,33.24,0,0,1-12.59-2.06,19.75,19.75,0,0,1-8-5.73,21.26,21.26,0,0,1-4.17-8.91,52.59,52.59,0,0,1-1.19-11.59Z"/><path class="cls-1" d="M354.47,195.73a70.88,70.88,0,0,1-13.35,4.19L379,237.84c4-1.73,7.87-3.57,11.63-5.66,3.07-1.7,6-3.55,8.92-5.48l-35.83-35.82A76.3,76.3,0,0,1,354.47,195.73Z"/><path class="cls-1" d="M255.55,153.07,198.61,96.12a119.06,119.06,0,0,0-3.41,28.37c0,9.9-.75,22,4.45,31,3.55,6.19,10.74,11.5,15.79,16.55q20.72,20.7,41.41,41.41,9.93,9.91,19.85,19.85c5.77,5.76,9.77,10.65,18,12.45a141.27,141.27,0,0,0,30.39,3.41,134.45,134.45,0,0,0,24.31-2.22L299.47,197Z"/><path class="cls-1" d="M256.3,94.15c1.05-2.51,2.22-4.93,3.47-7.26l-38-38a124.5,124.5,0,0,0-8.82,12.59c-1.31,2.15-2.54,4.34-3.71,6.57l42.45,42.44A74.84,74.84,0,0,1,256.3,94.15Z"/><path class="cls-1" d="M394.08,155.17a79,79,0,0,1-10,17.35l36.57,36.57a122.32,122.32,0,0,0,29.86-51.38c1.05-3.62,1.86-7.32,2.55-11H397A75.85,75.85,0,0,1,394.08,155.17Z"/><path class="cls-1" d="M354.47,53.59a72.91,72.91,0,0,1,23.7,16.17,77,77,0,0,1,21.52,49.53H455c-.22-5.36-.18-10.76-1.13-16.05-1.17-6.44-3.81-9.89-8.31-14.39q-17.34-17.32-34.67-34.67L381.71,25,370.27,13.57C364.84,8.13,361.5,4.65,353.82,3A137.24,137.24,0,0,0,325.1,0a135.68,135.68,0,0,0-34.62,4.37c-1.07.28-2.1.64-3.17.94L330,48A72.65,72.65,0,0,1,354.47,53.59Z"/><path class="cls-1" d="M296.08,53.59c.19-.08.39-.13.58-.21L259.92,16.63l-.47.24a131,131,0,0,0-18.4,12.58l36,36A74.52,74.52,0,0,1,296.08,53.59Z"/><path class="cls-1" d="M340.77,143.67a20.38,20.38,0,0,1-6.95,4.73,20.67,20.67,0,0,1-3.22,1,23,23,0,0,1-5.44.7,22.57,22.57,0,0,1-5.37-.7,19.92,19.92,0,0,1-10.23-5.75,21.28,21.28,0,0,1-2-2.49H280.21c.35,1,.7,2.08,1.13,3.1a46.72,46.72,0,0,0,2.61,5.14,43,43,0,0,0,7.07,9.15,45.73,45.73,0,0,0,14.87,9.64c.46.19.95.32,1.41.5a50,50,0,0,0,17.54,3.05A53.21,53.21,0,0,0,340,169.64c1.42-.42,2.81-.88,4.17-1.43a45.06,45.06,0,0,0,15-9.64,41.63,41.63,0,0,0,4-4.54,44.55,44.55,0,0,0,3.14-4.65,45,45,0,0,0,2.61-5.14,44.4,44.4,0,0,0,3.48-17.52c0-1.6-.09-3.17-.24-4.72-.12-1.21-.31-2.39-.52-3.56A43.78,43.78,0,0,0,359.1,94.86a45.82,45.82,0,0,0-14.94-9.68A50.2,50.2,0,0,0,325,81.63c-.87,0-1.7.07-2.54.11a47.06,47.06,0,0,0-24.26,7.42,44.09,44.09,0,0,0-7.22,5.7,43.15,43.15,0,0,0-9.68,14.34c-.18.43-.31.88-.47,1.31-.31.8-.58,1.6-.83,2.41h27a21.42,21.42,0,0,1,2.51-3.15,20.72,20.72,0,0,1,5.4-3.88c.53-.28,1-.62,1.59-.86a22,22,0,0,1,8.57-1.67,22.31,22.31,0,0,1,8.66,1.67,20.87,20.87,0,0,1,7,4.74,22.12,22.12,0,0,1,4.7,7.35,24,24,0,0,1,1.32,4.88,28.83,28.83,0,0,1,.4,4.64,25.76,25.76,0,0,1-1.72,9.63A22.41,22.41,0,0,1,340.77,143.67Z"/></g></g></svg>