<svg xmlns="http://www.w3.org/2000/svg" viewBox="0 0 268.67 207"><defs><style>.cls-1{fill:#fff;}</style></defs><g id="Capa_2" data-name="Capa 2"><g id="Elementos"><path class="cls-1" d="M263.87,165.62h-.52v-3.85h1.78c.64,0,1.27.22,1.27,1a1,1,0,0,1-.53.93c.22.09.44.19.46.72l0,.7c0,.22,0,.3.19.39v.08h-.64a5,5,0,0,1-.09-1c0-.32-.06-.69-.69-.69h-1.26Zm0-2.1h1.21c.38,0,.79-.09.79-.66s-.44-.65-.7-.65h-1.3Z"/><path class="cls-1" d="M264.82,167.55a3.86,3.86,0,1,1,3.85-3.85,3.86,3.86,0,0,1-3.85,3.85m0-7.28a3.43,3.43,0,1,0,3.42,3.43,3.44,3.44,0,0,0-3.42-3.43"/><polygon class="cls-1" points="0 163.28 4.31 158.97 14.94 158.97 19.25 163.28 19.25 175.56 12.36 175.56 12.36 166.15 10.92 164.72 8.33 164.72 6.9 166.15 6.9 199.67 8.33 201.11 10.92 201.11 12.36 199.67 12.36 190.33 19.25 190.33 19.25 202.69 14.94 207 4.31 207 0 202.69 0 163.28"/><path class="cls-1" d="M23.2,159h16l4.31,4.31V186l-3.8,3.81L44,207H37.28l-4.23-16.71H30.1V207H23.2Zm13.37,24.28v-17.1l-1.44-1.43h-5v20h5Z"/><polygon class="cls-1" points="54.24 207 54.24 195.68 45.91 158.97 53.3 158.97 57.62 185.77 61.93 158.97 69.33 158.97 60.99 195.68 60.99 207 54.24 207"/><path class="cls-1" d="M72.34,159H87.93l4.31,4.31v24.14l-4.31,4.31H79.24V207h-6.9Zm13,25.57V166.15l-1.44-1.43H79.24V186h4.67Z"/><polygon class="cls-1" points="107.33 164.72 107.33 207 100.43 207 100.43 164.72 93.89 164.72 93.89 158.97 113.87 158.97 113.87 164.72 107.33 164.72"/><path class="cls-1" d="M137,202.69,132.69,207h-12l-4.31-4.31V163.28l4.31-4.31h12l4.31,4.31Zm-12.29-37.83-1.43,1.44v33.37l1.43,1.44h4l1.44-1.44V166.3l-1.44-1.44Z"/><polygon class="cls-1" points="161.7 206.13 161.7 159.84 156.55 159.84 156.55 184.05 147.55 184.05 147.55 159.84 142.4 159.84 142.4 206.13 147.55 206.13 147.55 188.34 156.55 188.34 156.55 206.13 161.7 206.13"/><path class="cls-1" d="M186.85,163.64l-3.8-3.8H171.77l-3.8,3.8v38.69l3.8,3.8h11.28l3.8-3.8ZM181.69,200,179.74,202h-4.67L173.12,200V165.94l1.95-1.95h4.67l1.95,1.95Z"/><polygon class="cls-1" points="211.49 159.84 206.33 159.84 206.33 200.03 204.38 201.98 200.14 201.98 198.2 200.03 198.2 159.84 193.04 159.84 193.04 202.33 196.84 206.13 207.69 206.13 211.49 202.33 211.49 159.84"/><polygon class="cls-1" points="235.05 187.63 231.25 183.84 224.5 183.84 222.55 181.89 222.55 165.79 224.5 163.84 227.73 163.84 229.68 165.79 229.68 173.9 234.83 173.9 234.83 163.64 231.03 159.84 221.19 159.84 217.4 163.64 217.4 184.18 221.19 187.98 227.95 187.98 229.9 189.93 229.9 200.18 227.95 202.13 224.35 202.13 222.41 200.18 222.41 195.66 217.25 195.66 217.25 202.33 221.05 206.13 231.25 206.13 235.05 202.33 235.05 187.63"/><polygon class="cls-1" points="254.88 187.98 254.88 183.84 246.04 183.84 246.04 163.99 256.17 163.99 256.17 159.84 240.89 159.84 240.89 206.13 256.31 206.13 256.31 201.98 246.04 201.98 246.04 187.98 254.88 187.98"/><polygon class="cls-1" points="188.44 50.38 188.44 42.33 181.25 35.13 153.31 35.13 153.31 7.2 146.11 0 138.07 0 138.07 35.13 118.25 35.13 118.25 0 110.2 0 103 7.2 103 35.13 103 50.38 103 70.2 83.11 70.2 83.11 50.38 94.99 50.38 94.99 35.13 75.07 35.13 67.87 42.33 67.87 50.38 67.87 70.2 67.87 78.25 75.07 85.44 103 85.44 103 113.38 110.2 120.58 118.25 120.58 118.25 85.44 130.06 85.44 130.06 70.2 118.25 70.2 118.25 50.38 138.07 50.38 138.07 70.2 138.07 85.44 138.07 120.58 146.11 120.58 153.31 113.38 153.31 85.44 181.25 85.44 188.44 78.25 188.44 70.2 153.31 70.2 153.31 50.38 188.44 50.38"/></g></g></svg>