<svg xmlns="http://www.w3.org/2000/svg" xmlns:xlink="http://www.w3.org/1999/xlink" viewBox="0 0 414.42 389.83"><defs><style>.cls-1{fill:url(#Degradado_sin_nombre_5);}.cls-2{fill:#b59f97;}.cls-3{fill:url(#Degradado_sin_nombre_5-2);}.cls-4{fill:url(#Degradado_sin_nombre_4);}.cls-11,.cls-13,.cls-5,.cls-9{isolation:isolate;}.cls-5{opacity:0.3;}.cls-6{fill:#ff6839;}.cls-7{fill:url(#Degradado_sin_nombre_9);}.cls-8{fill:#ffc935;}.cls-13,.cls-9{fill:#fff;}.cls-9{opacity:0.23;}.cls-10{fill:url(#Degradado_sin_nombre_9-2);}.cls-11{opacity:0.1;}.cls-12{fill:url(#Degradado_sin_nombre_9-3);}.cls-13{opacity:0.16;}.cls-14{fill:url(#Degradado_sin_nombre_9-4);}.cls-15{fill:url(#Degradado_sin_nombre_9-5);}.cls-16{fill:#996d55;}.cls-17{fill:url(#Degradado_sin_nombre_11);}.cls-18{fill:url(#Degradado_sin_nombre_11-2);}.cls-19{fill:#5d3f32;}.cls-20{fill:url(#Degradado_sin_nombre_5-3);}.cls-21{fill:url(#Degradado_sin_nombre_5-4);}.cls-22{fill:url(#Degradado_sin_nombre_4-2);}.cls-23{fill:url(#Degradado_sin_nombre_9-6);}.cls-24{fill:url(#Degradado_sin_nombre_9-7);}.cls-25{fill:url(#Degradado_sin_nombre_9-8);}.cls-26{fill:url(#Degradado_sin_nombre_9-9);}.cls-27{fill:url(#Degradado_sin_nombre_9-10);}.cls-28{fill:url(#Degradado_sin_nombre_11-3);}.cls-29{fill:url(#Degradado_sin_nombre_11-4);}</style><linearGradient id="Degradado_sin_nombre_5" x1="-5348.83" y1="6726.02" x2="-5339.67" y2="6724.12" gradientTransform="translate(-5101.1 6930.39) rotate(180)" gradientUnits="userSpaceOnUse"><stop offset="0" stop-color="#68404b"/><stop offset="1" stop-color="#99756c"/></linearGradient><linearGradient id="Degradado_sin_nombre_5-2" x1="-5328.33" y1="6849.07" x2="-5318.53" y2="6847.04" xlink:href="#Degradado_sin_nombre_5"/><linearGradient id="Degradado_sin_nombre_4" x1="-5245.43" y1="6862.48" x2="-5292.07" y2="6639.2" gradientTransform="translate(-5101.1 6930.39) rotate(180)" gradientUnits="userSpaceOnUse"><stop offset="0.08" stop-color="#ff4b0d"/><stop offset="1" stop-color="#ce1900"/></linearGradient><linearGradient id="Degradado_sin_nombre_9" x1="-5270.15" y1="6893.64" x2="-5210.17" y2="6881.25" gradientTransform="translate(-5101.1 6930.39) rotate(180)" gradientUnits="userSpaceOnUse"><stop offset="0" stop-color="#ff4b0d"/><stop offset="1" stop-color="#ff2a02"/></linearGradient><linearGradient id="Degradado_sin_nombre_9-2" x1="-5286.85" y1="6858.09" x2="-5315.38" y2="6709.48" xlink:href="#Degradado_sin_nombre_9"/><linearGradient id="Degradado_sin_nombre_9-3" x1="-5314.57" y1="6875.98" x2="-5254.59" y2="6863.58" xlink:href="#Degradado_sin_nombre_9"/><linearGradient id="Degradado_sin_nombre_9-4" x1="-5211.13" y1="6843.46" x2="-5239.69" y2="6694.66" xlink:href="#Degradado_sin_nombre_9"/><linearGradient id="Degradado_sin_nombre_9-5" x1="-5239" y1="6860.34" x2="-5179.02" y2="6847.94" xlink:href="#Degradado_sin_nombre_9"/><linearGradient id="Degradado_sin_nombre_11" x1="-5330.68" y1="6837.54" x2="-5180.12" y2="6806.43" gradientTransform="translate(-5101.1 6930.39) rotate(180)" gradientUnits="userSpaceOnUse"><stop offset="0" stop-color="#684035"/><stop offset="1" stop-color="#99756c"/></linearGradient><linearGradient id="Degradado_sin_nombre_11-2" x1="-5351.15" y1="6714.48" x2="-5210.43" y2="6685.4" xlink:href="#Degradado_sin_nombre_11"/><linearGradient id="Degradado_sin_nombre_5-3" x1="93.95" y1="6625.17" x2="101.4" y2="6623.63" gradientTransform="matrix(1, 0, 0, -1, 118.99, 6930.39)" xlink:href="#Degradado_sin_nombre_5"/><linearGradient id="Degradado_sin_nombre_5-4" x1="110.62" y1="6725.24" x2="118.59" y2="6723.6" gradientTransform="matrix(1, 0, 0, -1, 118.99, 6930.39)" xlink:href="#Degradado_sin_nombre_5"/><linearGradient id="Degradado_sin_nombre_4-2" x1="178.05" y1="6736.15" x2="140.11" y2="6554.56" gradientTransform="matrix(1, 0, 0, -1, 118.99, 6930.39)" xlink:href="#Degradado_sin_nombre_4"/><linearGradient id="Degradado_sin_nombre_9-6" x1="157.93" y1="6761.5" x2="206.72" y2="6751.41" gradientTransform="matrix(1, 0, 0, -1, 118.99, 6930.39)" xlink:href="#Degradado_sin_nombre_9"/><linearGradient id="Degradado_sin_nombre_9-7" x1="144.36" y1="6732.58" x2="121.15" y2="6611.72" gradientTransform="matrix(1, 0, 0, -1, 118.99, 6930.39)" xlink:href="#Degradado_sin_nombre_9"/><linearGradient id="Degradado_sin_nombre_9-8" x1="121.81" y1="6747.13" x2="170.59" y2="6737.05" gradientTransform="matrix(1, 0, 0, -1, 118.99, 6930.39)" xlink:href="#Degradado_sin_nombre_9"/><linearGradient id="Degradado_sin_nombre_9-9" x1="205.94" y1="6720.68" x2="182.71" y2="6599.67" gradientTransform="matrix(1, 0, 0, -1, 118.99, 6930.39)" xlink:href="#Degradado_sin_nombre_9"/><linearGradient id="Degradado_sin_nombre_9-10" x1="183.27" y1="6734.41" x2="232.05" y2="6724.33" gradientTransform="matrix(1, 0, 0, -1, 118.99, 6930.39)" xlink:href="#Degradado_sin_nombre_9"/><linearGradient id="Degradado_sin_nombre_11-3" x1="108.71" y1="6715.87" x2="231.16" y2="6690.56" gradientTransform="matrix(1, 0, 0, -1, 118.99, 6930.39)" xlink:href="#Degradado_sin_nombre_11"/><linearGradient id="Degradado_sin_nombre_11-4" x1="92.06" y1="6615.78" x2="206.51" y2="6592.13" gradientTransform="matrix(1, 0, 0, -1, 118.99, 6930.39)" xlink:href="#Degradado_sin_nombre_11"/></defs><g id="Capa_2" data-name="Capa 2"><g id="Elementos"><path class="cls-1" d="M246.48,201.41a5,5,0,0,0-4.21-1.39,4,4,0,0,0-1.66.56,4.29,4.29,0,0,0-1.78,2.91A9.6,9.6,0,0,0,239,208a3.57,3.57,0,0,0,1.5,2.3,4.91,4.91,0,0,0,2.94.46,2.87,2.87,0,0,0,3.13-2.33C247.12,206.24,248.51,203.2,246.48,201.41Z"/><path class="cls-2" d="M79.79,107.24a5.84,5.84,0,0,1,4,.56,7.78,7.78,0,0,1,2.69,2.56,5.26,5.26,0,0,1,1.13,3.51A3.56,3.56,0,0,1,85,116.82a4.75,4.75,0,0,1-2.4-.12,7.33,7.33,0,0,1-3.41-2.38,16.41,16.41,0,0,1-2-3.42C76.5,109.34,77.84,107.71,79.79,107.24Z"/><path class="cls-3" d="M225.92,78.37A5.46,5.46,0,0,0,221.44,77a4.61,4.61,0,0,0-1.78.58,4.51,4.51,0,0,0-1.93,2.94A8.9,8.9,0,0,0,217.8,85a3.61,3.61,0,0,0,1.56,2.29,5.44,5.44,0,0,0,3.13.42,4.23,4.23,0,0,0,2.63-1,3.85,3.85,0,0,0,.75-1.41C226.56,83.2,228.09,80.13,225.92,78.37Z"/><path class="cls-4" d="M175.67,35.81l39.54,229.85s1.07,11.15-28.48,16.47c-24,4.31-29.19-3.37-29.19-3.37L102.72,50.88Z"/><path class="cls-5" d="M106.61,50.08l6.44,3.63L167,283c-7.41-1.19-9.46-4.21-9.46-4.21L102.71,50.86l3.89-.81Z"/><path class="cls-6" d="M141.45,54.16c-20.15,4.16-37.48,2.69-38.72-3.28S116.83,36.69,137,32.52s37.48-2.69,38.71,3.28S161.59,50,141.45,54.16Z"/><path class="cls-7" d="M109.07,49.14c.83,4,14.93,4.44,31.48,1s29.32-9.43,28.5-13.41-14.92-4.45-31.48-1S108.25,45.15,109.07,49.14Z"/><path class="cls-5" d="M169.69,36.64c.74,3.6-9.57,8.84-23.78,12.34,1-1,2.17-2,3.19-3.1a14,14,0,0,0,4-9,7.28,7.28,0,0,0-.61-3.29C162.23,32.81,169.13,33.88,169.69,36.64Z"/><path class="cls-8" d="M140.7,50.54c-15,3.09-27.5,3.74-28,1.45S124,45.34,139,42.25s27.5-3.75,28-1.46S155.68,47.44,140.7,50.54Z"/><path class="cls-9" d="M169.73,54.51c1.76,1.51,1.9,3.81,2,6C173,86.93,200.17,213.3,203.28,239.54a19.27,19.27,0,0,1,0,6.69,2.9,2.9,0,0,1-2,2.38,3.07,3.07,0,0,1-2.82-1c-2.5-2.47-3.05-5.92-3.53-9.17-3.52-23.7-29.45-147.79-36.13-170.82a15,15,0,0,1-.88-6.46C158.48,57.66,165.23,50.66,169.73,54.51Z"/><path class="cls-9" d="M204.41,252.67a3.35,3.35,0,0,1,2.31,1.66c1.51,2.49.61,5.6.62,8.49,0,1.62.29,3.27-.43,4.82a4.59,4.59,0,0,1-4.82,2.51c-1.66-.42-2.15-2-2.45-3.34s-.59-2.75-.9-4.11a10.9,10.9,0,0,1-.34-4.51C198.71,256.48,201.66,252.24,204.41,252.67Z"/><path class="cls-10" d="M220.21,54.31l33.33,222.05s.85,11.93-28.82,16.56c-24,3.76-29.12-4.64-29.12-4.64L147,67.81Z"/><path class="cls-11" d="M150.88,67.07l6.39,4.12L205,293.12c-7.39-1.53-9.37-4.82-9.37-4.82L147,67.83Z"/><path class="cls-6" d="M185.74,72.66c-20.22,3.74-37.57,1.58-38.75-4.84s14.23-14.64,34.44-18.39,37.57-1.58,38.76,4.83S206,68.91,185.74,72.66Z"/><path class="cls-12" d="M153.36,66.15c.74,4.29,14.81,5.28,31.46,2.22s29.5-9,28.78-13.31-14.81-5.27-31.46-2.21S152.61,61.87,153.36,66.15Z"/><path class="cls-5" d="M214.23,55c.68,3.87-9.76,9.09-24,12.32,1-1.08,2.21-2.12,3.23-3.21a15.14,15.14,0,0,0,4.23-9.49,8.12,8.12,0,0,0-.54-3.55C206.82,50.64,213.71,52,214.23,55Z"/><path class="cls-8" d="M211.39,59.32C207,62.83,197,66.55,184.93,68.77s-22.72,2.3-28,.56c4.38-3.51,14.44-7.23,26.47-9.45S206.12,57.58,211.39,59.32Z"/><path class="cls-13" d="M213.9,74.06c1.72,1.67,1.83,4.14,1.89,6.42.73,28.33,23.8,139.42,26.38,167.55a22,22,0,0,1-.13,7.15,3,3,0,0,1-2,2.46,3,3,0,0,1-2.81-1.18c-2.47-2.75-2.92-6.43-3.33-9.93-3-25.44-24.9-134.06-31.12-158.89a16.79,16.79,0,0,1-.77-6.92C202.57,77,209.45,69.81,213.9,74.06Z"/><path class="cls-9" d="M243,262.1a3.46,3.46,0,0,1,2.29,1.86c1.46,2.71.48,6,.42,9.07,0,1.72.23,3.5-.53,5.15s-3,3.11-4.86,2.52c-1.65-.51-2.12-2.2-2.37-3.66s-.54-3-.83-4.44a12.9,12.9,0,0,1-.26-4.84C237.24,266,240.26,261.53,243,262.1Z"/><path class="cls-14" d="M144.41,68.6l40.7,220.85s1.48,11.85-28,17.54c-23.9,4.61-29.41-3.56-29.41-3.56l-56-218.71Z"/><path class="cls-11" d="M75.57,83.84l6.62,3.86,55.14,220.19c-7.5-1.25-9.66-4.46-9.66-4.46l-56-218.71Z"/><path class="cls-6" d="M71.72,84.71c1.45,6.35,18.91,7.89,39,3.46S145.87,75,144.44,68.62s-18.92-7.9-39-3.46S70.26,78.36,71.72,84.71Z"/><path class="cls-15" d="M78,82.86c1,4.24,15.14,4.71,31.65,1.06s29.12-10,28.15-14.29-15.15-4.71-31.66-1.06S77,78.6,78,82.86Z"/><path class="cls-5" d="M138.45,69.5c.88,3.83-9.31,9.42-23.43,13.15,1-1.13,2.12-2.17,3.07-3.32a14.79,14.79,0,0,0,3.74-9.61,8.55,8.55,0,0,0-.73-3.5C130.8,65.45,137.77,66.58,138.45,69.5Z"/><path class="cls-8" d="M135.84,73.9c-4.2,3.68-14.09,7.74-26,10.39s-22.65,3.14-28,1.6c4.21-3.67,14.1-7.74,26-10.39S130.45,72.39,135.84,73.9Z"/><path class="cls-13" d="M139.12,88.49c1.82,1.6,2,4.07,2.23,6.33,2.24,28.15,26.79,139,30.84,166.83a21.82,21.82,0,0,1,.24,7.12,3,3,0,0,1-1.88,2.53,3.09,3.09,0,0,1-2.87-1.06c-2.62-2.65-3.27-6.29-3.88-9.77-4.37-25.21-27.59-133.55-35.14-158a17,17,0,0,1-1.14-6.86C127.92,91.87,134.46,84.43,139.12,88.49Z"/><path class="cls-9" d="M173.78,275.64a3.53,3.53,0,0,1,2.38,1.77c1.62,2.65.8,6,.92,9,.07,1.72.4,3.46-.25,5.13s-2.83,3.2-4.74,2.69c-1.68-.46-2.24-2.1-2.58-3.55l-1-4.39a12.92,12.92,0,0,1-.52-4.78C168.21,279.69,171,275.17,173.78,275.64Z"/><path class="cls-16" d="M182.4,65.14l-.52-10.41c.62-6.45,1.24-13.1,0-19.63-1.42-7.47-5.38-13.66-11.09-17.39-6.86-4.47-15.63-5.42-24.1-6.32-5.2-.57-10.59-1.14-15.3-2.57a76.5,76.5,0,0,1-8-3.05,75.7,75.7,0,0,0-8.56-3.27C107.94.44,100.43.07,93.37,0A75.6,75.6,0,0,0,76.32,1.3,84.66,84.66,0,0,0,63.21,5.65c-1.58.61-3.2,1.25-4.79,1.84-4.55,1.68-9.37,3-14,4.4-4.17,1.19-8.45,2.43-12.64,3.87-11.18,3.87-19.19,8.67-24.47,14.6C1,37.48-1.43,46.59.84,54.72c1.23,4.35,3.69,8.21,6.06,12,.77,1.21,1.58,2.5,2.31,3.75,3.51,5.94,4.63,10.68,3.48,14.87-.17.66-.41,1.33-.67,2a13.82,13.82,0,0,0-1.14,5.94s.48,1.56,2.92,1.06,2.57-1.84,2.57-1.84a10,10,0,0,1,.91-4.2c.27-.74.53-1.53.77-2.34,1.89-7-1.29-13.51-3.88-17.84-.76-1.31-1.6-2.59-2.38-3.85-2.33-3.65-4.54-7.12-5.61-10.93-1.89-6.73.17-14.57,5.39-20.44C16.16,27.72,23.33,23.48,33.48,20c4-1.4,8.22-2.6,12.3-3.78,4.78-1.36,9.71-2.79,14.5-4.53,1.68-.61,3.35-1.27,5-1.9a80.06,80.06,0,0,1,12.08-4C82,4.68,86.94,4.52,92.84,4.58c6.61.08,13.59.4,19.77,2.26a73.55,73.55,0,0,1,7.94,3.05,76,76,0,0,0,8.56,3.27,91.45,91.45,0,0,0,16.38,2.77c8.16.87,15.86,1.7,21.63,5.47,4.74,3.08,8,8.34,9.26,14.76,1.14,6,.54,12.38,0,18.57l.54,11.36s.36,1.25,3,.69C182.2,66.27,182.4,65.14,182.4,65.14Z"/><path class="cls-16" d="M141.78,49.22c.33-8.78-.49-15.61-8.25-20.16-5.24-3.07-11.68-3-17.94-2.95a68.48,68.48,0,0,1-8.33-.22,26.8,26.8,0,0,1-13.94-5.55,44.82,44.82,0,0,1-3.45-3.22,33.81,33.81,0,0,0-5.83-5C76.37,7.16,64.56,6.77,49.9,11l1.42,4.34c8.94-2.56,21.25-4.56,29.14.51a31.47,31.47,0,0,1,5.06,4.39,46.44,46.44,0,0,0,3.8,3.53,32.23,32.23,0,0,0,16.84,6.71,79.16,79.16,0,0,0,9.1.26c5.66-.06,11-.12,14.9,2.16,5.84,3.43,6.13,9.42,5.84,17,0,0,.65.74,3,.58C141.22,50.29,141.78,49.22,141.78,49.22Z"/><path class="cls-16" d="M116.22,78.41C115.7,74.2,112,70.4,106,68c-2.07-.83-4.22-1.45-6.3-2.07a54.67,54.67,0,0,1-6.9-2.37c-5.53-2.51-9.57-7.14-10.8-12.4A35.27,35.27,0,0,1,81.55,42c.07-1.75.13-3.54,0-5.33C81.37,31.48,79.88,24,74,18a27.82,27.82,0,0,0-22-7.75l.18,4.57a22.07,22.07,0,0,1,17.45,6.27c5,5.09,6.28,11.57,6.45,16.09.08,1.65,0,3.3,0,5a37.52,37.52,0,0,0,.57,10.16c1.52,6.43,6.5,12.12,13.29,15.22a56.93,56.93,0,0,0,7.62,2.66c2,.59,4,1.17,5.78,1.89,2.07.83,6.93,3.17,7.39,7,0,0,.47,1.66,2.81,1.18C116.07,79.89,116.22,78.41,116.22,78.41Z"/><path class="cls-17" d="M207.07,93.45C170,105.12,131.23,114.2,92.74,113.58c-5.82-.1-12.33-.7-15.57-4.54-1.1.41-1,1.74-.63,2.67,1.53,4.12,3.06,8.27,4.6,12.39A6.63,6.63,0,0,0,83,127.2c1.39,1.07,3.46,1.21,5.4,1.28a307.27,307.27,0,0,0,137.24-27.17,6.27,6.27,0,0,0,2.15-1.34c1-1.19.62-2.77.24-4.12-1.38-5-1.22-9.81-.95-14.95-3.2-.52-4.38,4.92-6.4,6.48C216.9,90.3,211.78,92,207.07,93.45Z"/><path class="cls-13" d="M88.47,128.69c-1.94-.08-4-.21-5.39-1.29a6.49,6.49,0,0,1-1.9-3.09c-1.55-4.15-3.06-8.28-4.6-12.4-.34-.93-.49-2.22.63-2.67,2.62,3.14,7.43,4.12,12.29,4.42a11.39,11.39,0,0,1,.84,2c.85,2.62,1.19,5.55,3.3,7.58s5.27,2.66,8.41,3c14,1.59,28.92-2.54,42.8-.85A303.32,303.32,0,0,1,88.47,128.69Z"/><path class="cls-18" d="M229,216.21c-34.58,11.16-70.83,19.72-106.94,18.6-5.44-.17-11.57-.85-14.63-4.73-1,.4-.9,1.72-.56,2.65,1.49,4.13,3,8.29,4.46,12.42a6.88,6.88,0,0,0,1.81,3.12c1.29,1.09,3.25,1.25,5.08,1.35A269.17,269.17,0,0,0,246.5,224.29a5.4,5.4,0,0,0,2-1.31c.94-1.17.55-2.75.17-4.1-1.35-5-1.26-9.8-1.09-14.92-3-.57-4,4.85-5.92,6.38C238.13,213.2,233.36,214.8,229,216.21Z"/><path class="cls-13" d="M118.25,249.82c-1.83-.1-3.78-.26-5.08-1.35a6.69,6.69,0,0,1-1.8-3.12c-1.5-4.15-3-8.28-4.47-12.42-.33-.93-.48-2.22.57-2.66,2.51,3.17,7,4.21,11.55,4.57a11.76,11.76,0,0,1,.83,2c.82,2.63,1.19,5.55,3.2,7.6s5,2.72,7.92,3.13c13.14,1.78,27.07-2.15,40.11-.28A265,265,0,0,1,118.25,249.82Z"/><path class="cls-19" d="M55.64,11.51A3.51,3.51,0,0,0,57.9,15a23.18,23.18,0,0,0-6.14,1.5,5.11,5.11,0,0,1-2.16.57,2.89,2.89,0,0,1-2.27-1.64A5.37,5.37,0,0,1,47,10.83a2.3,2.3,0,0,1,.78-1.06,4,4,0,0,1,1-.42l8.88-2.62c.9-.26,2-.49,2.65,0a13.75,13.75,0,0,0-3.17,1.56A5.36,5.36,0,0,0,55.64,11.51Z"/><path class="cls-20" d="M214,302.81a4.12,4.12,0,0,1,3.42-1.13,3.33,3.33,0,0,1,1.36.46,3.47,3.47,0,0,1,1.44,2.36,7.94,7.94,0,0,1-.09,3.63,3,3,0,0,1-1.22,1.88,4.08,4.08,0,0,1-2.4.37,3,3,0,0,1-2-.76,3,3,0,0,1-.56-1.14C213.43,306.74,212.3,304.27,214,302.81Z"/><path class="cls-2" d="M349.52,226.22a4.77,4.77,0,0,0-3.28.46,6.31,6.31,0,0,0-2.18,2.08,4.35,4.35,0,0,0-.93,2.86,2.91,2.91,0,0,0,2.16,2.4,3.89,3.89,0,0,0,1.95-.1A5.92,5.92,0,0,0,350,232a13,13,0,0,0,1.6-2.78C352.2,227.94,351.1,226.61,349.52,226.22Z"/><path class="cls-21" d="M230.67,202.75a4.44,4.44,0,0,1,3.64-1.09,3.35,3.35,0,0,1,3,2.87,7.19,7.19,0,0,1-.05,3.63A2.92,2.92,0,0,1,236,210a4.46,4.46,0,0,1-2.54.34,3.43,3.43,0,0,1-2.13-.79,3.23,3.23,0,0,1-.62-1.15C230.15,206.67,228.91,204.18,230.67,202.75Z"/><path class="cls-22" d="M271.54,168.13,239.38,355.07s-.87,9.07,23.16,13.4c19.5,3.5,23.75-2.74,23.75-2.74l44.59-185.34Z"/><path class="cls-5" d="M327.71,179.73l-5.24,3L278.59,369.14c6-1,7.7-3.43,7.7-3.43l44.59-185.34-3.17-.65Z"/><path class="cls-6" d="M299.37,183.05c16.39,3.39,30.48,2.19,31.49-2.67S319.39,168.84,303,165.46s-30.49-2.2-31.49,2.66S283,179.67,299.37,183.05Z"/><path class="cls-23" d="M325.71,179c-.68,3.24-12.15,3.61-25.61.83s-23.85-7.67-23.18-10.91,12.14-3.61,25.61-.83S326.38,175.73,325.71,179Z"/><path class="cls-5" d="M276.4,168.8c-.6,2.93,7.79,7.19,19.34,10-.8-.86-1.76-1.65-2.59-2.52a11.44,11.44,0,0,1-3.29-7.34,6,6,0,0,1,.5-2.68C282.47,165.69,276.86,166.56,276.4,168.8Z"/><path class="cls-8" d="M300,180.11c12.18,2.52,22.37,3,22.75,1.18s-9.17-5.41-21.35-7.93-22.38-3-22.76-1.18S287.8,177.59,300,180.11Z"/><path class="cls-9" d="M276.37,183.34c-1.43,1.23-1.54,3.1-1.63,4.83-1,21.54-23.12,124.32-25.66,145.65a15.84,15.84,0,0,0,0,5.45,2.33,2.33,0,0,0,1.59,1.93,2.5,2.5,0,0,0,2.29-.82c2-2,2.48-4.81,2.87-7.45,2.87-19.28,24-120.21,29.39-138.94a12.24,12.24,0,0,0,.72-5.25C285.52,185.9,280,180.21,276.37,183.34Z"/><path class="cls-9" d="M248.17,344.51a2.69,2.69,0,0,0-1.88,1.35c-1.23,2-.5,4.55-.5,6.9,0,1.31-.24,2.66.35,3.92a3.72,3.72,0,0,0,3.92,2c1.34-.34,1.74-1.61,2-2.71s.48-2.24.73-3.35a8.74,8.74,0,0,0,.27-3.67C252.8,347.61,250.4,344.16,248.17,344.51Z"/><path class="cls-24" d="M235.31,183.18l-27.1,180.59s-.69,9.7,23.44,13.47c19.55,3.06,23.68-3.77,23.68-3.77L294.9,194.16Z"/><path class="cls-11" d="M291.7,193.55l-5.19,3.35L247.68,377.41c6-1.25,7.63-3.93,7.63-3.93l39.56-179.31Z"/><path class="cls-6" d="M263.35,198.1c16.44,3.05,30.56,1.28,31.52-3.93s-11.58-11.92-28-15-30.55-1.29-31.52,3.93S246.91,195.05,263.35,198.1Z"/><path class="cls-25" d="M289.69,192.81c-.6,3.49-12.05,4.29-25.59,1.8s-24-7.33-23.41-10.82,12.05-4.29,25.59-1.8S290.3,189.32,289.69,192.81Z"/><path class="cls-5" d="M240.18,183.72c-.55,3.15,7.94,7.39,19.54,10-.82-.88-1.8-1.72-2.63-2.61a12.28,12.28,0,0,1-3.44-7.72,6.6,6.6,0,0,1,.44-2.88C246.2,180.19,240.6,181.31,240.18,183.72Z"/><path class="cls-8" d="M242.49,187.25c3.56,2.86,11.74,5.88,21.52,7.69s18.48,1.87,22.77.46c-3.56-2.86-11.74-5.89-21.52-7.7S246.78,185.84,242.49,187.25Z"/><path class="cls-13" d="M240.45,199.24c-1.4,1.36-1.49,3.36-1.54,5.22-.59,23-19.36,113.39-21.46,136.27a18,18,0,0,0,.11,5.81,2.12,2.12,0,0,0,3.92,1c2-2.24,2.38-5.23,2.71-8.08,2.46-20.69,20.25-109,25.31-129.22a13.83,13.83,0,0,0,.63-5.63C249.67,201.65,244.06,195.78,240.45,199.24Z"/><path class="cls-9" d="M216.79,352.18a2.79,2.79,0,0,0-1.86,1.5c-1.19,2.21-.39,4.89-.35,7.39a10.05,10.05,0,0,0,.43,4.18,3.63,3.63,0,0,0,4,2.05c1.34-.41,1.72-1.78,1.93-3s.44-2.4.67-3.61a10.38,10.38,0,0,0,.21-3.93C221.47,355.31,219,351.71,216.79,352.18Z"/><path class="cls-26" d="M297,194.8,263.86,374.42s-1.2,9.64,22.8,14.26c19.44,3.75,23.92-2.89,23.92-2.89l45.53-177.88Z"/><path class="cls-11" d="M353,207.2l-5.38,3.13L302.73,389.42c6.1-1,7.85-3.63,7.85-3.63l45.53-177.88Z"/><path class="cls-6" d="M356.09,207.9c-1.18,5.17-15.38,6.42-31.71,2.81s-28.6-10.73-27.44-15.9,15.39-6.42,31.71-2.81S357.27,202.74,356.09,207.9Z"/><path class="cls-27" d="M351,206.4c-.79,3.45-12.32,3.83-25.74.86s-23.69-8.18-22.9-11.63,12.32-3.82,25.75-.85S351.77,202.93,351,206.4Z"/><path class="cls-5" d="M301.82,195.53c-.72,3.11,7.57,7.67,19.05,10.69-.78-.91-1.72-1.76-2.5-2.69a12.08,12.08,0,0,1-3-7.82,6.93,6.93,0,0,1,.59-2.85C308,192.24,302.37,193.15,301.82,195.53Z"/><path class="cls-8" d="M303.93,199.11c3.42,3,11.47,6.29,21.18,8.45s18.41,2.55,22.81,1.3c-3.42-3-11.47-6.29-21.18-8.45S308.32,197.88,303.93,199.11Z"/><path class="cls-13" d="M301.27,211c-1.48,1.3-1.67,3.3-1.82,5.15-1.81,22.89-21.78,113-25.08,135.68a18.15,18.15,0,0,0-.2,5.79,2.44,2.44,0,0,0,1.53,2.06,2.51,2.51,0,0,0,2.34-.87c2.13-2.15,2.66-5.11,3.15-7.94,3.56-20.51,22.44-108.62,28.59-128.53a13.93,13.93,0,0,0,.92-5.59C310.38,213.73,305.06,207.67,301.27,211Z"/><path class="cls-9" d="M273.08,363.19a2.86,2.86,0,0,0-1.94,1.43c-1.31,2.17-.65,4.85-.74,7.34a10,10,0,0,0,.2,4.18,3.57,3.57,0,0,0,3.85,2.18c1.37-.37,1.82-1.71,2.1-2.88s.57-2.38.86-3.57a10.48,10.48,0,0,0,.42-3.89C277.61,366.48,275.34,362.81,273.08,363.19Z"/><path class="cls-16" d="M266.07,192l.42-8.47c-.5-5.24-1-10.66,0-16a21.36,21.36,0,0,1,9-14.14c5.58-3.64,12.71-4.41,19.6-5.14a70.23,70.23,0,0,0,12.44-2.09,63.68,63.68,0,0,0,6.48-2.48,60.19,60.19,0,0,1,7-2.66c5.62-1.68,11.73-2,17.47-2a61.53,61.53,0,0,1,13.86,1.05A69.39,69.39,0,0,1,363,143.6c1.29.5,2.61,1,3.9,1.5,3.7,1.36,7.62,2.48,11.41,3.57,3.39,1,6.87,2,10.28,3.15,9.1,3.16,15.61,7.05,19.91,11.88,5.13,5.79,7.08,13.2,5.23,19.81-1,3.54-3,6.68-4.92,9.72-.63,1-1.29,2-1.89,3.05-2.85,4.83-3.76,8.68-2.83,12.1.14.53.34,1.07.55,1.66a11.16,11.16,0,0,1,.93,4.82s-.4,1.27-2.38.86-2.08-1.49-2.08-1.49a8.35,8.35,0,0,0-.75-3.42c-.22-.6-.43-1.25-.62-1.9-1.54-5.65,1.05-11,3.15-14.51.62-1.07,1.3-2.11,1.94-3.13,1.89-3,3.69-5.79,4.56-8.89,1.54-5.47-.14-11.85-4.39-16.62-3.72-4.21-9.56-7.66-17.82-10.5-3.25-1.14-6.68-2.12-10-3.08-3.88-1.1-7.89-2.26-11.79-3.68-1.36-.5-2.72-1-4-1.55a66,66,0,0,0-9.83-3.29,55.25,55.25,0,0,0-12.63-.93c-5.38.07-11.05.33-16.08,1.84a61.61,61.61,0,0,0-6.46,2.48,61.62,61.62,0,0,1-7,2.66A75,75,0,0,1,296.08,152c-6.63.71-12.89,1.39-17.58,4.45a18,18,0,0,0-7.54,12c-.93,4.87-.44,10.07,0,15.11l-.44,9.24s-.29,1-2.4.56C266.23,192.91,266.07,192,266.07,192Z"/><path class="cls-16" d="M299.1,179c-.26-7.14.41-12.7,6.71-16.4,4.26-2.5,9.5-2.44,14.59-2.4a53.48,53.48,0,0,0,6.78-.18,21.76,21.76,0,0,0,11.34-4.51,36,36,0,0,0,2.8-2.62,27.58,27.58,0,0,1,4.75-4.08c6.23-4,15.84-4.34,27.76-.93l-1.15,3.53c-7.28-2.08-17.29-3.71-23.7.41a26,26,0,0,0-4.12,3.57,35.82,35.82,0,0,1-3.09,2.88,26.32,26.32,0,0,1-13.69,5.45,63.26,63.26,0,0,1-7.4.21c-4.61,0-8.95-.09-12.13,1.76-4.75,2.79-5,7.67-4.75,13.82,0,0-.53.6-2.45.47S299.1,179,299.1,179Z"/><path class="cls-16" d="M319.9,202.78c.42-3.43,3.43-6.51,8.27-8.47,1.69-.67,3.44-1.18,5.12-1.68a43.35,43.35,0,0,0,5.61-1.93,15.28,15.28,0,0,0,8.79-10.08,29,29,0,0,0,.4-7.45c-.06-1.42-.1-2.88,0-4.33a21.55,21.55,0,0,1,24.07-21.48l-.15,3.71a17.94,17.94,0,0,0-14.18,5.11,19.57,19.57,0,0,0-5.25,13.08c-.07,1.34,0,2.68,0,4.1a30.8,30.8,0,0,1-.47,8.27c-1.23,5.23-5.28,9.86-10.8,12.38a48,48,0,0,1-6.2,2.16c-1.67.49-3.23,1-4.7,1.54-1.69.67-5.63,2.58-6,5.73,0,0-.38,1.35-2.29,1C320,204,319.9,202.78,319.9,202.78Z"/><path class="cls-28" d="M246,215c30.15,9.49,61.69,16.88,93,16.38,4.73-.09,10-.58,12.66-3.7.9.34.79,1.41.52,2.17-1.25,3.35-2.49,6.73-3.74,10.08a5.4,5.4,0,0,1-1.55,2.52c-1.12.87-2.81,1-4.38,1a250,250,0,0,1-111.63-22.1,5,5,0,0,1-1.74-1.09c-.84-1-.5-2.25-.2-3.34,1.13-4,1-8,.78-12.17,2.6-.42,3.55,4,5.2,5.27C238,212.45,242.18,213.79,246,215Z"/><path class="cls-13" d="M342.46,243.67c1.58-.06,3.28-.17,4.39-1a5.28,5.28,0,0,0,1.54-2.51c1.26-3.38,2.49-6.73,3.74-10.08.28-.76.4-1.82-.51-2.18-2.13,2.56-6,3.35-10,3.6a9,9,0,0,0-.69,1.63c-.69,2.14-1,4.51-2.68,6.16s-4.29,2.17-6.85,2.47c-11.39,1.3-23.51-2.06-34.8-.68A246.87,246.87,0,0,0,342.46,243.67Z"/><path class="cls-29" d="M228.19,314.85c28.13,9.08,57.61,16,87,15.13,4.43-.14,9.42-.7,11.9-3.85.84.33.74,1.4.46,2.16-1.21,3.36-2.43,6.74-3.63,10.1a5.62,5.62,0,0,1-1.47,2.54c-1.05.88-2.64,1-4.13,1.09a218.82,218.82,0,0,1-104.36-20.6,4.52,4.52,0,0,1-1.61-1.06c-.77-1-.45-2.24-.15-3.33,1.11-4,1-8,.89-12.14,2.45-.46,3.28,3.94,4.82,5.18C220.74,312.4,224.62,313.71,228.19,314.85Z"/><path class="cls-13" d="M318.24,342.19c1.49-.09,3.08-.22,4.13-1.1a5.48,5.48,0,0,0,1.47-2.54c1.22-3.37,2.44-6.73,3.63-10.1.27-.75.4-1.81-.46-2.16-2,2.57-5.71,3.42-9.4,3.72a9.63,9.63,0,0,0-.67,1.63c-.67,2.14-1,4.52-2.61,6.18s-4.05,2.22-6.43,2.56c-10.69,1.44-22-1.75-32.63-.24A215.65,215.65,0,0,0,318.24,342.19Z"/><path class="cls-19" d="M369.16,148.37a2.84,2.84,0,0,1-1.84,2.84,18.77,18.77,0,0,1,5,1.23,4.1,4.1,0,0,0,1.76.45,2.29,2.29,0,0,0,1.84-1.33,4.37,4.37,0,0,0,.29-3.75,1.87,1.87,0,0,0-.63-.86,3.15,3.15,0,0,0-.82-.34l-7.22-2.13c-.73-.21-1.66-.4-2.16,0a11.69,11.69,0,0,1,2.58,1.27A4.35,4.35,0,0,1,369.16,148.37Z"/></g></g></svg>