<svg xmlns="http://www.w3.org/2000/svg" xmlns:xlink="http://www.w3.org/1999/xlink" viewBox="0 0 3459.42 1075.79"><defs><style>.cls-1{fill:none;}.cls-2{isolation:isolate;}.cls-3{clip-path:url(#clip-path);}.cls-4,.cls-5,.cls-7,.cls-8{fill-rule:evenodd;}.cls-4{fill:url(#linear-gradient);}.cls-5{fill:#d1e9e9;mix-blend-mode:soft-light;opacity:0.5;}.cls-6,.cls-7{mix-blend-mode:screen;}.cls-6{fill:url(#_ÂÁ_Ï_ÌÌ_È_ËÂÌÚ_330);}.cls-7{fill:url(#_ÂÁ_Ï_ÌÌ_È_ËÂÌÚ_329);}.cls-8{fill:#4cb9b1;}</style><clipPath id="clip-path"><rect class="cls-1" width="1960.7" height="1075.79"/></clipPath><linearGradient id="linear-gradient" x1="1795.58" y1="868.1" x2="1795.58" y2="454.55" gradientUnits="userSpaceOnUse"><stop offset="0.2" stop-color="#6d81bf"/><stop offset="0.31" stop-color="#6a7dbc"/><stop offset="0.43" stop-color="#6371b4"/><stop offset="0.55" stop-color="#565da6"/><stop offset="0.62" stop-color="#4a4b99"/><stop offset="0.73" stop-color="#454490"/><stop offset="0.91" stop-color="#363278"/><stop offset="1" stop-color="#2e2769"/></linearGradient><radialGradient id="_ÂÁ_Ï_ÌÌ_È_ËÂÌÚ_330" cx="-2613.67" cy="1448.15" r="7.47" gradientTransform="matrix(-1.6, 0, 0, 1.39, -3682.35, -1400.37)" gradientUnits="userSpaceOnUse"><stop offset="0" stop-color="#28347a"/><stop offset="0.33" stop-color="#171e47"/><stop offset="0.62" stop-color="#0b0e20"/><stop offset="0.85" stop-color="#030409"/><stop offset="1"/></radialGradient><radialGradient id="_ÂÁ_Ï_ÌÌ_È_ËÂÌÚ_329" cx="-2613.67" cy="1448.15" r="3.5" gradientTransform="matrix(-1.6, 0, 0, 1.39, -3682.35, -1400.37)" gradientUnits="userSpaceOnUse"><stop offset="0" stop-color="#3d56a1"/><stop offset="0.17" stop-color="#2f427c"/><stop offset="0.45" stop-color="#1b2647"/><stop offset="0.69" stop-color="#0c1120"/><stop offset="0.88" stop-color="#030509"/><stop offset="1"/></radialGradient></defs><g class="cls-2"><g id="Capa_2" data-name="Capa 2"><g id="Capa_1-2" data-name="Capa 1"><g class="cls-3"><polygon class="cls-4" points="154.41 592.64 1218.74 454.55 1484.82 561.42 1511.24 557.8 2221.05 789.06 2342.48 763.67 2359.87 763.67 2565.13 680.87 2936.38 802.54 3459.42 763.67 3458.61 816.61 131.74 868.1 154.41 592.64"/><polygon class="cls-5" points="1218.74 454.55 1386.92 537.89 1230.14 510.75 1218.74 510.75 1287.99 537.89 1151.28 616.24 1205.94 709.64 1237.56 763.67 1206.94 740.6 1237.56 781.02 1718.35 789.06 1518.65 594 1484.82 561.42 1218.74 454.55"/><polygon class="cls-5" points="1511.24 557.8 1655.04 705.3 1890.21 767.74 1663.38 715.48 1860.29 771.14 1797.24 763.07 1907.31 787.7 2221.05 789.06 1511.24 557.8"/><polygon class="cls-5" points="1067.79 568.21 1174.94 709.38 1012.66 636.25 1039.95 636.25 931.84 500.33 1067.79 568.21"/><polygon class="cls-5" points="1196.64 851.37 684.26 566.85 795.96 635.58 601.1 534.69 422.94 557.8 771.73 684.94 638.48 657.12 601.61 672.52 783.9 748.74 860.57 845.98 1196.64 851.37"/><polygon class="cls-5" points="636.4 695.8 636.4 709.38 694.84 732.45 694.84 722.5 636.4 695.8"/><polygon class="cls-5" points="694.84 548.75 795.96 616.24 844.39 624.89 707.83 548.75 694.84 548.75"/><polygon class="cls-5" points="1242.2 473.64 1334.97 517.08 1302.02 511.45 1242.2 473.64"/><polygon class="cls-5" points="2565.13 680.87 2654.55 730.3 2572.09 692.18 2515.5 730.3 2588.88 758.69 2515.5 736.52 2654.55 795.34 2442.19 799.92 2936.38 802.54 2565.13 680.87"/><polygon class="cls-5" points="2359.87 763.67 2400 789.06 2367.06 795.34 2379.93 787.83 2336.45 787.98 2342.48 763.67 2359.87 763.67"/><ellipse class="cls-6" cx="508.1" cy="605.71" rx="11.98" ry="10.35"/><path class="cls-7" d="M502.48,605.71c0,2.68,2.52,4.85,5.62,4.85s5.62-2.17,5.62-4.85-2.52-4.85-5.62-4.85S502.48,603,502.48,605.71Z"/><path class="cls-8" d="M509.38,606a1.94,1.94,0,1,1-1.93-1.88A1.9,1.9,0,0,1,509.38,606Z"/><rect class="cls-1" width="3308.69" height="1075.79"/></g></g></g></g></svg>