<svg xmlns="http://www.w3.org/2000/svg" xmlns:xlink="http://www.w3.org/1999/xlink" viewBox="0 0 3309.28 696.21"><defs><style>.cls-1{fill:none;}.cls-2{isolation:isolate;}.cls-3{clip-path:url(#clip-path);}.cls-13,.cls-14,.cls-15,.cls-17,.cls-18,.cls-19,.cls-20,.cls-21,.cls-22,.cls-23,.cls-25,.cls-26,.cls-27,.cls-28,.cls-29,.cls-30,.cls-31,.cls-32,.cls-33,.cls-34,.cls-35,.cls-36,.cls-37,.cls-38,.cls-39,.cls-4,.cls-40,.cls-41,.cls-42,.cls-43,.cls-44,.cls-45,.cls-46,.cls-47,.cls-48,.cls-49,.cls-5,.cls-50,.cls-51,.cls-52,.cls-53,.cls-54,.cls-55,.cls-56,.cls-57,.cls-58,.cls-59,.cls-60,.cls-61,.cls-7,.cls-8,.cls-9{fill-rule:evenodd;}.cls-4{fill:url(#linear-gradient);}.cls-5{fill:url(#linear-gradient-2);}.cls-6{mix-blend-mode:soft-light;}.cls-7{fill:#919a92;}.cls-8{fill:#4779b0;}.cls-9{fill:#9e6173;}.cls-21,.cls-41,.cls-59,.cls-9{mix-blend-mode:multiply;}.cls-21,.cls-33,.cls-9{opacity:0.5;}.cls-10{fill:url(#_ÂÁ_Ï_ÌÌ_È_ËÂÌÚ_71);}.cls-11{fill:url(#_ÂÁ_Ï_ÌÌ_È_ËÂÌÚ_71-2);}.cls-12{fill:url(#_ÂÁ_Ï_ÌÌ_È_ËÂÌÚ_71-3);}.cls-13,.cls-62{fill:#331b45;}.cls-14{fill:#401f50;}.cls-15{fill:#352666;}.cls-16{fill:url(#_ÂÁ_Ï_ÌÌ_È_ËÂÌÚ_71-4);}.cls-17{fill:url(#_ÂÁ_Ï_ÌÌ_È_ËÂÌÚ_293);}.cls-18{fill:#334c9b;}.cls-18,.cls-23,.cls-24,.cls-25,.cls-27,.cls-30{mix-blend-mode:screen;}.cls-18,.cls-27,.cls-30,.cls-41{opacity:0.3;}.cls-19{fill:#6985c3;}.cls-20{fill:url(#_ÂÁ_Ï_ÌÌ_È_ËÂÌÚ_293-2);}.cls-21,.cls-41{fill:#9e5b9f;}.cls-22{fill:#3870b5;}.cls-23{fill:url(#linear-gradient-3);}.cls-24{fill:url(#_ÂÁ_Ï_ÌÌ_È_ËÂÌÚ_330);}.cls-25{fill:url(#_ÂÁ_Ï_ÌÌ_È_ËÂÌÚ_329);}.cls-26{fill:#4cb9b1;}.cls-27{fill:url(#_ÂÁ_Ï_ÌÌ_È_ËÂÌÚ_425);}.cls-28{fill:#43143a;}.cls-29{fill:#651b34;}.cls-30{fill:url(#_ÂÁ_Ï_ÌÌ_È_ËÂÌÚ_425-2);}.cls-31{fill:#4a1134;}.cls-32{fill:url(#linear-gradient-4);}.cls-33{fill:#542e74;}.cls-34{fill:#411337;}.cls-35{fill:url(#_ÂÁ_Ï_ÌÌ_È_ËÂÌÚ_293-3);}.cls-36{fill:#381f4e;}.cls-37{fill:#382357;}.cls-38{fill:#39255f;}.cls-39{fill:#51348a;opacity:0.2;}.cls-40{fill:#451134;}.cls-42{fill:#4c2772;}.cls-43{fill:url(#_ÂÁ_Ï_ÌÌ_È_ËÂÌÚ_293-4);}.cls-44{fill:#662a4d;}.cls-45{fill:#4f2461;}.cls-46{fill:#5f1b3a;}.cls-47{fill:url(#_ÂÁ_Ï_ÌÌ_È_ËÂÌÚ_293-5);}.cls-48{fill:#4c277e;}.cls-49{fill:url(#_ÂÁ_Ï_ÌÌ_È_ËÂÌÚ_293-6);}.cls-50{fill:#2c2f80;}.cls-51{fill:url(#_ÂÁ_Ï_ÌÌ_È_ËÂÌÚ_321);}.cls-52{fill:#772a34;}.cls-53{fill:#6d2847;}.cls-54{fill:url(#_ÂÁ_Ï_ÌÌ_È_ËÂÌÚ_321-2);}.cls-55{fill:#530f36;}.cls-56{fill:#773242;}.cls-57{fill:#6e203b;}.cls-58{fill:#5f123b;}.cls-59{fill:url(#_ÂÁ_Ï_ÌÌ_È_ËÂÌÚ_69);}.cls-60{fill:#411134;}.cls-61{fill:#67213a;}</style><clipPath id="clip-path" transform="translate(0 -388.84)"><rect class="cls-1" width="1960.7" height="1075.79"/></clipPath><linearGradient id="linear-gradient" x1="712.64" y1="686.95" x2="712.64" gradientUnits="userSpaceOnUse"><stop offset="0.01" stop-color="#32173a"/><stop offset="1" stop-color="#382b69"/></linearGradient><linearGradient id="linear-gradient-2" x1="2408.19" y1="686.95" x2="2408.19" y2="56.17" xlink:href="#linear-gradient"/><linearGradient id="_ÂÁ_Ï_ÌÌ_È_ËÂÌÚ_71" x1="1902.56" y1="666.2" x2="2628.02" y2="576.35" gradientUnits="userSpaceOnUse"><stop offset="0" stop-color="#431236"/><stop offset="1" stop-color="#35286e"/></linearGradient><linearGradient id="_ÂÁ_Ï_ÌÌ_È_ËÂÌÚ_71-2" x1="2101.51" y1="710.8" x2="2643.51" y2="643.67" xlink:href="#_ÂÁ_Ï_ÌÌ_È_ËÂÌÚ_71"/><linearGradient id="_ÂÁ_Ï_ÌÌ_È_ËÂÌÚ_71-3" x1="1964.74" y1="732.03" x2="2633.9" y2="649.15" xlink:href="#_ÂÁ_Ï_ÌÌ_È_ËÂÌÚ_71"/><linearGradient id="_ÂÁ_Ï_ÌÌ_È_ËÂÌÚ_71-4" x1="2089.35" y1="640.34" x2="2640.91" y2="572.02" xlink:href="#_ÂÁ_Ï_ÌÌ_È_ËÂÌÚ_71"/><linearGradient id="_ÂÁ_Ï_ÌÌ_È_ËÂÌÚ_293" x1="2163.85" y1="885.04" x2="2163.85" y2="713.99" gradientTransform="translate(-316.55 -469.39) rotate(-3.91)" gradientUnits="userSpaceOnUse"><stop offset="0" stop-color="#431236"/><stop offset="1" stop-color="#352664"/></linearGradient><linearGradient id="_ÂÁ_Ï_ÌÌ_È_ËÂÌÚ_293-2" x1="2337.32" y1="882.93" x2="2337.32" y2="655.52" xlink:href="#_ÂÁ_Ï_ÌÌ_È_ËÂÌÚ_293"/><linearGradient id="linear-gradient-3" x1="1654.93" y1="1075.79" x2="1654.93" y2="445.01" gradientUnits="userSpaceOnUse"><stop offset="0" stop-color="#4874b8"/><stop offset="0.25" stop-color="#385a8e"/><stop offset="0.81" stop-color="#0e1725"/><stop offset="1"/></linearGradient><radialGradient id="_ÂÁ_Ï_ÌÌ_È_ËÂÌÚ_330" cx="-2829.5" cy="1715.23" r="7.47" gradientTransform="matrix(-1.6, 0, 0, 1.39, -4027.8, -2159.19)" gradientUnits="userSpaceOnUse"><stop offset="0" stop-color="#28347a"/><stop offset="0.33" stop-color="#171e47"/><stop offset="0.62" stop-color="#0b0e20"/><stop offset="0.85" stop-color="#030409"/><stop offset="1"/></radialGradient><radialGradient id="_ÂÁ_Ï_ÌÌ_È_ËÂÌÚ_329" cx="-2829.5" cy="1715.23" r="3.5" gradientTransform="matrix(-1.6, 0, 0, 1.39, -4027.8, -1770.36)" gradientUnits="userSpaceOnUse"><stop offset="0" stop-color="#3d56a1"/><stop offset="0.17" stop-color="#2f427c"/><stop offset="0.45" stop-color="#1b2647"/><stop offset="0.69" stop-color="#0c1120"/><stop offset="0.88" stop-color="#030509"/><stop offset="1"/></radialGradient><linearGradient id="_ÂÁ_Ï_ÌÌ_È_ËÂÌÚ_425" x1="0.33" y1="907.27" x2="1471.83" y2="907.27" gradientUnits="userSpaceOnUse"><stop offset="0" stop-color="#3e87c7"/><stop offset="0.1" stop-color="#3573aa"/><stop offset="0.34" stop-color="#224b6e"/><stop offset="0.55" stop-color="#132a3f"/><stop offset="0.74" stop-color="#09131c"/><stop offset="0.9" stop-color="#020508"/><stop offset="1"/></linearGradient><linearGradient id="_ÂÁ_Ï_ÌÌ_È_ËÂÌÚ_425-2" x1="1815.69" y1="886.43" x2="3309.28" y2="886.43" xlink:href="#_ÂÁ_Ï_ÌÌ_È_ËÂÌÚ_425"/><linearGradient id="linear-gradient-4" x1="1654.8" y1="686.95" x2="1654.8" y2="208.03" gradientUnits="userSpaceOnUse"><stop offset="0" stop-color="#38173c"/><stop offset="0.52" stop-color="#661c35"/><stop offset="1" stop-color="#362780"/></linearGradient><linearGradient id="_ÂÁ_Ï_ÌÌ_È_ËÂÌÚ_293-3" x1="1671.26" y1="347.06" x2="2121.83" y2="347.06" gradientTransform="matrix(1, 0, 0, 1, 0, 0)" xlink:href="#_ÂÁ_Ï_ÌÌ_È_ËÂÌÚ_293"/><linearGradient id="_ÂÁ_Ï_ÌÌ_È_ËÂÌÚ_293-4" x1="1520.64" y1="353.43" x2="1520.64" y2="310.28" gradientTransform="matrix(1, 0, 0, 1, 0, 0)" xlink:href="#_ÂÁ_Ï_ÌÌ_È_ËÂÌÚ_293"/><linearGradient id="_ÂÁ_Ï_ÌÌ_È_ËÂÌÚ_293-5" x1="1991.94" y1="484.26" x2="1991.94" y2="283.76" gradientTransform="matrix(1, 0, 0, 1, 0, 0)" xlink:href="#_ÂÁ_Ï_ÌÌ_È_ËÂÌÚ_293"/><linearGradient id="_ÂÁ_Ï_ÌÌ_È_ËÂÌÚ_293-6" x1="2090.34" y1="417.67" x2="2090.34" y2="340.42" gradientTransform="matrix(1, 0, 0, 1, 0, 0)" xlink:href="#_ÂÁ_Ï_ÌÌ_È_ËÂÌÚ_293"/><linearGradient id="_ÂÁ_Ï_ÌÌ_È_ËÂÌÚ_321" x1="685.83" y1="686.95" x2="685.83" y2="461.13" gradientUnits="userSpaceOnUse"><stop offset="0" stop-color="#2b0e24"/><stop offset="1" stop-color="#431236"/></linearGradient><linearGradient id="_ÂÁ_Ï_ÌÌ_È_ËÂÌÚ_321-2" x1="1403.7" y1="570.11" x2="1403.7" y2="558.62" xlink:href="#_ÂÁ_Ï_ÌÌ_È_ËÂÌÚ_321"/><linearGradient id="_ÂÁ_Ï_ÌÌ_È_ËÂÌÚ_69" x1="1052.52" y1="1036.13" x2="1052.52" y2="898.72" gradientUnits="userSpaceOnUse"><stop offset="0" stop-color="#fff"/><stop offset="0.17" stop-color="#e8e7f1"/><stop offset="0.53" stop-color="#aea9ce"/><stop offset="1" stop-color="#5a509c"/></linearGradient></defs><g class="cls-2"><g id="Capa_2" data-name="Capa 2"><g id="Capa_1-2" data-name="Capa 1"><g class="cls-3"><polygon class="cls-4" points="552.04 191.01 897.27 300.56 900.36 326.63 918.17 326.63 1010.12 589.63 927.78 297.44 952.65 255.32 1212.94 295.19 1237.89 425.13 1221.17 305.93 1316.78 299.8 1327.75 318.71 1391.72 655.97 1361.82 401.01 1392.55 377.25 1425.28 686.95 0.75 686.95 0 46.56 122.17 32.69 119.71 0 345.59 48.02 357.68 207.06 361.23 18.77 374.85 14.83 555.1 173.12 552.04 191.01"/><polygon class="cls-5" points="2757.83 199.2 2316.67 264.46 2294.01 261.26 2287.7 264.59 1920.85 273.58 1615.23 253.31 1607.44 300.88 1602.81 246.72 1507.26 264.39 1525.27 686.95 3309.11 686.95 3309.11 66.19 3001.3 237.42 3001.3 56.17 2778.5 173.46 2757.83 215.27 2757.83 199.2"/><g class="cls-6"><polygon class="cls-7" points="2757.83 199.2 2614.07 401.67 2409.67 481.41 2389.77 471.96 2501.57 239.81 2757.83 199.2"/><polygon class="cls-7" points="2517.28 455.97 2547.44 433.92 2562.3 431.13 2517.28 455.97"/><polygon class="cls-7" points="2491.91 239.81 2357.17 532.65 2262.56 531.05 2301.74 395.75 2312.19 394.15 2297.18 464.86 2361.5 258.15 2491.91 239.81"/><polygon class="cls-7" points="2418.34 531.05 2714.61 353.43 2668.52 476.24 2504.83 519.55 2659.07 494.93 2640.18 540.04 2418.34 531.05"/><polygon class="cls-7" points="2634.69 389 2758.46 289.56 2759.33 330.35 2634.69 389"/><polygon class="cls-7" points="2680.56 543.33 2757.88 429.53 2757.83 543.33 2680.56 543.33"/><polygon class="cls-7" points="2270.99 271.98 2303.33 390.6 2312.19 388.47 2322.91 263.53 2270.99 271.98"/><polygon class="cls-7" points="2229.37 486.43 2260.98 477.84 2259.39 540.04 2200.25 534.25 2229.37 486.43"/><polygon class="cls-7" points="1507.26 264.39 1602.81 246.72 1588.54 317.56 1558.1 523.63 1518.7 526.83 1507.26 264.39"/><polygon class="cls-7" points="1615.23 253.31 1580.78 425.91 1753.18 399.88 1863.97 272.14 1615.23 253.31"/><polygon class="cls-7" points="1803.15 462.02 1920.85 443.07 1895.1 473.56 1803.15 462.02"/><polygon class="cls-7" points="1805.28 487.28 2075.91 464.86 2018.39 508.68 1879.54 521.42 1805.28 487.28"/><polygon class="cls-7" points="2049.09 501.51 2240.93 266.19 2260.98 265.64 2289.2 395.75 2183.71 523.63 2049.09 501.51"/><polygon class="cls-7" points="2211.89 265.22 2076.78 455.97 2183.71 270.38 2211.89 265.22"/><polygon class="cls-7" points="952.65 255.32 988.66 359.07 1035.71 372.26 1071.99 462.73 1244.14 462.73 1212.94 295.19 952.65 255.32"/><polygon class="cls-7" points="1221.17 305.93 1246.1 358.73 1339.14 451.8 1352.69 450.2 1327.75 318.71 1316.78 299.8 1221.17 305.93"/><polygon class="cls-7" points="900.36 326.63 917.47 481.41 859.85 496.5 787.49 267.81 897.27 300.56 900.36 326.63"/><polygon class="cls-7" points="918.17 326.63 905.67 328.29 945.43 404.6 918.17 326.63"/><polygon class="cls-7" points="553.87 197.16 776.26 278.07 867.12 523.63 813.76 531.05 553.87 292.76 553.87 197.16"/><polygon class="cls-7" points="548.5 313.56 700.96 496.5 665.51 499.7 553.87 411 548.5 313.56"/><polygon class="cls-7" points="414.18 187.52 479.44 457.15 462.31 458.7 414.18 281.41 414.18 187.52"/><polygon class="cls-7" points="989.88 365.68 1008.22 408.53 1042.74 405.67 1031.54 376.77 989.88 365.68"/><polygon class="cls-7" points="1868.44 269.41 1788.01 451.8 1876.37 438.14 1931.67 266.62 1868.44 269.41"/><polygon class="cls-7" points="2778.5 173.46 2769.99 540.57 2816.45 543.33 2833.89 273.92 2846.17 264.39 2833.92 453.56 2846.17 438.14 2895.69 136.82 2778.5 173.46"/><polygon class="cls-7" points="2829.95 543.33 2894.98 315.56 2895.69 543.33 2829.95 543.33"/><polygon class="cls-7" points="414.18 49.36 551.7 170.13 524.56 450.2 491.85 449.76 414.18 49.36"/><polygon class="cls-7" points="2669.46 337.91 2686.77 322.31 2707.11 319.11 2669.46 337.91"/><polygon class="cls-7" points="2680.56 472.8 2697.01 435.52 2714.61 460.27 2699.89 477.84 2680.56 472.8"/><polygon class="cls-7" points="2362.5 532.65 2384.79 486.43 2405.36 484.86 2362.5 532.65"/><polygon class="cls-7" points="541.52 409.58 588.6 442.22 558.94 443.45 541.52 409.58"/><polygon class="cls-7" points="548.5 310.28 621.43 397.59 687.12 414.94 552.04 301.39 548.5 310.28"/><polygon class="cls-7" points="1244.14 361.16 1257.48 392.5 1286.93 402.43 1244.14 361.16"/><polygon class="cls-7" points="454.45 449.82 414.18 310.71 414.18 351.22 429.96 421.29 442.5 426.52 454.45 449.82"/><polygon class="cls-7" points="2908.2 469.6 2939.64 409.85 2917.76 492.37 2908.2 469.6"/><polygon class="cls-7" points="345.59 48.02 357.83 199.2 394.15 686.95 341.42 686.95 316.85 213.27 302.72 192.48 320.8 545.13 275.79 609.64 251.59 33.69 345.59 48.02"/><polygon class="cls-7" points="179.91 94.49 177.31 411.28 147.56 463.24 68.45 77.76 179.91 94.49"/><polygon class="cls-7" points="42.3 102.63 69.97 220.63 76.53 346.02 65.29 346.02 26.05 131.43 42.3 102.63"/><polygon class="cls-7" points="59.22 358.68 34.22 244.72 22.87 247.68 40.07 384.57 59.22 358.68"/><polygon class="cls-7" points="3067.52 407.8 3041.02 543.87 3007.5 543.33 3024.81 409.16 3067.52 407.8"/><polygon class="cls-7" points="3057.83 517.22 3072.37 449.34 3085.32 433.33 3062.62 517.22 3057.83 517.22"/><polygon class="cls-7" points="3104.42 389 3131.14 391.04 3111.2 540.04 3151.15 541.21 3203.31 322.81 3108.74 342.49 3104.42 389"/><polygon class="cls-7" points="3175.54 472.8 3208.13 351.79 3227.18 341.54 3182.16 475.27 3175.54 472.8"/><polygon class="cls-7" points="2948.72 404.19 2972.34 267.07 3009.09 260.68 2959.94 404.19 2948.72 404.19"/><polygon class="cls-7" points="2956.77 422.61 2978.9 364.75 2988.11 364.11 2956.77 432.89 2956.77 422.61"/></g><polygon class="cls-8" points="2757.83 199.2 2491.91 238.21 2485.53 252.87 2757.83 199.2"/><polygon class="cls-8" points="2322.91 263.53 2270.99 271.98 2294.01 261.26 2322.91 263.53"/><polygon class="cls-8" points="1920.85 273.58 1881.71 282.77 2287.7 264.59 1920.85 273.58"/><polygon class="cls-8" points="1615.23 253.31 1806.18 291.16 1862 293.08 1889.06 270.34 1615.23 253.31"/><polygon class="cls-8" points="1507.26 264.39 1602.81 246.72 1590.41 261.26 1507.26 264.39"/><polygon class="cls-8" points="1221.17 305.93 1327.75 318.71 1316.78 299.8 1221.17 305.93"/><polygon class="cls-8" points="1212.94 295.19 1042.74 277.46 1068.28 276 952.65 255.32 1212.94 295.19"/><polygon class="cls-8" points="897.27 300.56 792.84 280.29 776.26 278.07 552.04 197.16 552.04 191.01 897.27 300.56"/><polygon class="cls-8" points="750.18 276 779.43 300.56 775.25 283.78 750.18 276"/><polygon class="cls-8" points="2322.91 263.53 2447.2 250.07 2491.91 238.21 2322.91 263.53"/><polygon class="cls-8" points="374.85 14.83 555.1 173.12 538.35 163.85 389.46 44.96 374.85 14.83"/><polygon class="cls-8" points="2778.5 173.46 2778.5 173.46 2847.76 156.04 2895.69 144.65 3001.3 56.17 2778.5 173.46"/><polygon class="cls-9" points="989.88 365.68 966.55 435.01 960.59 415.51 988.66 359.07 1015.57 366.61 1015.57 370.66 989.88 365.68"/><polygon class="cls-9" points="1008.22 408.53 989.88 517.81 1010.12 589.63 1075.16 696.21 1068.68 637.12 1008.22 408.53"/><polygon class="cls-9" points="553.87 411 529.19 402.43 537.41 317.56 548.5 313.56 553.87 411"/><polygon class="cls-9" points="440.67 185.92 424.21 228.97 473.66 433.27 487.89 424.77 440.67 185.92"/><polygon class="cls-9" points="1847.42 291.22 1753.18 399.88 1699.41 588.75 1721.87 632.28 1788.01 451.8 1862 293.08 1847.42 291.22"/><polygon class="cls-9" points="1694.05 594.29 1674.14 686.95 1717.83 686.95 1717.83 643.9 1694.05 594.29"/><polygon class="cls-9" points="1602.81 246.72 1590.41 261.26 1563.61 499.7 1580.78 425.91 1607.29 293.08 1602.81 246.72"/><polygon class="cls-9" points="2757.83 199.2 2678.27 311.25 2707.11 319.11 2757.83 215.27 2757.83 199.2"/><polygon class="cls-9" points="2485.53 252.87 2406.53 425.71 2413.03 429.53 2495.83 251.73 2485.53 252.87"/><polygon class="cls-9" points="2322.91 263.53 2312.19 388.47 2322.91 379.04 2361.5 258.15 2322.91 263.53"/><polygon class="cls-8" points="119.71 0 143.09 23.6 345.59 48.02 119.71 0"/><polygon class="cls-8" points="3066.48 195.77 2972.34 267.07 3020.35 254.91 3309.11 66.19 3066.48 195.77"/><polygon class="cls-9" points="2895.69 144.65 2863.32 337.91 2880.79 351.2 2894.98 315.56 2879.5 283.76 2954.33 360.6 2972.34 267.07 3001.3 237.42 3001.3 56.17 2895.69 144.65"/><polygon class="cls-9" points="357.83 199.2 379.03 478.21 414.18 351.22 414.18 310.71 435.24 383.47 439.63 380.27 414.18 281.41 414.18 187.52 389.46 44.96 374.85 14.83 361.23 18.77 357.83 199.2"/><polygon class="cls-8" points="0.75 65.96 178.94 93.97 122.17 32.69 0 46.56 0.75 65.96"/><polygon class="cls-8" points="189.52 97.52 241.74 111.38 256.27 118.88 231.21 117.28 189.52 97.52"/><polygon class="cls-9" points="189.52 97.52 198.48 593.04 198.48 686.95 212.31 686.95 198.48 296.57 215.48 273.42 227.76 686.95 243.32 686.95 231.21 117.28 189.52 97.52"/><polygon class="cls-9" points="143.09 23.6 146.26 56.41 122.17 32.69 119.71 0 143.09 23.6"/><polygon class="cls-8" points="3108.74 342.49 3309.28 258.61 3309.28 300.76 3108.74 342.49"/><polygon class="cls-8" points="3024.81 407.8 3104.42 389 3061 406.78 3024.81 407.8"/><polygon class="cls-8" points="2462.14 504.79 2550.18 469.51 2640.05 396.63 2462.14 504.79"/><polygon class="cls-9" points="3020.35 254.91 2988.11 540.95 3000.82 543.87 3024.81 407.8 3104.42 389 3108.74 342.49 3178.72 313.91 3199.78 173.46 3224.01 150.93 3213.46 298.88 3230.79 291.44 3243.03 112.31 3020.35 254.91"/><path class="cls-10" d="M1890.68,539.82c28,19.59,57.07,38,86.47,55.78s59.43,34.54,90,50.32,61.73,30.45,93.62,43.48,64.5,24.42,98,32.83a444.64,444.64,0,0,0,50.77,9.82,300,300,0,0,0,51.62,2.59,231.32,231.32,0,0,0,25.71-2.62c8.56-1.15,17-2.8,25.49-4.51a388.63,388.63,0,0,0,141.33-61c7.09-4.84,13.89-10.07,20.64-15.35s13.18-10.93,19.49-16.71c12.52-11.64,24.47-24,34.72-37.59-10.16,13.7-22,26.1-34.49,37.83-6.27,5.82-12.77,11.42-19.4,16.85s-13.49,10.62-20.56,15.51a390.13,390.13,0,0,1-141.36,62c-8.48,1.77-17,3.49-25.57,4.7a233.7,233.7,0,0,1-25.91,2.8,302.48,302.48,0,0,1-52-2.26,446.88,446.88,0,0,1-51.13-9.55c-33.69-8.23-66.53-19.46-98.61-32.33s-63.44-27.41-94.21-43-61-32.32-90.59-49.87-58.79-35.87-87.2-55.44Z" transform="translate(0 -388.84)"/><path class="cls-11" d="M2094.55,623a728.53,728.53,0,0,0,66,43c22.77,13.23,46.17,25.45,70.15,36.48,47.91,22,98.3,39.46,150.46,48.93,6.52,1.12,13,2.29,19.59,3.07s13.15,1.24,19.76,1.34a191.61,191.61,0,0,0,39.42-3.24c26-4.83,50.77-15.21,72.91-29.39s41.93-31.85,59.24-51.46a343.77,343.77,0,0,0,24.21-30.84,295.8,295.8,0,0,0,20.37-33.38,295.73,295.73,0,0,1-20.09,33.57,345.18,345.18,0,0,1-24,31.09c-17.17,19.79-36.79,37.73-59,52.14s-47,25.14-73.28,30.24a194.3,194.3,0,0,1-39.85,3.62c-6.69,0-13.36-.53-20-1.19s-13.22-1.86-19.79-2.93c-52.53-9.08-103.35-26.16-151.72-47.92-24.2-10.88-47.83-23-70.85-36.08a732.31,732.31,0,0,1-67-42.76Z" transform="translate(0 -388.84)"/><path class="cls-12" d="M1956.59,652.41c26.75,15.15,54.9,28.11,83.41,40s57.7,22.29,87.29,31.4a916.05,916.05,0,0,0,182,36.81A322.62,322.62,0,0,0,2489.44,727a378.17,378.17,0,0,0,76.4-51.51,409.05,409.05,0,0,0,33-32,323.47,323.47,0,0,0,28.83-35.65,322.45,322.45,0,0,1-28.7,35.75,409.48,409.48,0,0,1-32.95,32.12,378.65,378.65,0,0,1-76.33,51.85,323.62,323.62,0,0,1-180.59,34.29,918.55,918.55,0,0,1-182.47-36.2q-44.54-13.53-87.62-31.15c-28.65-11.82-56.85-24.66-83.9-39.85Z" transform="translate(0 -388.84)"/><polygon class="cls-13" points="2074.82 317.95 2205.94 304.43 2241.53 321.76 2140.86 339.88 2074.82 317.95"/><polygon class="cls-14" points="2074.82 317.95 2076.46 314.56 2198.1 303.05 2205.94 304.43 2074.82 317.95"/><polygon class="cls-13" points="2162.75 346 2247.27 323.68 2289.79 340.11 2181.48 350.8 2162.75 346"/><polygon class="cls-13" points="2212.72 357.87 2316.95 348.85 2328.43 351.38 2224.34 360.21 2212.72 357.87"/><polygon class="cls-13" points="2236.48 362.49 2332.1 353.12 2370 361.89 2279.97 369.21 2236.48 362.49"/><polygon class="cls-13" points="2056.7 310.99 2176.89 286.11 2129.24 259.31 1988.22 280.55 2056.7 310.99"/><polygon class="cls-13" points="2331.28 373.89 2399.61 366.74 2413.05 367.89 2351.55 373.94 2331.28 373.89"/><polygon class="cls-15" points="2425.08 363.26 2469.96 362.57 2493.58 356.22 2443.58 357.73 2425.08 363.26"/><polygon class="cls-15" points="2502.26 351.57 2446.12 356.87 2477.87 344.17 2529.16 337.97 2502.26 351.57"/><polygon class="cls-15" points="2486.69 339.95 2534.18 334.29 2542.52 328.62 2492.54 336.99 2486.69 339.95"/><polygon class="cls-15" points="2514.4 324.65 2557.8 316.89 2574.99 301.43 2543.65 304.8 2514.4 324.65"/><polygon class="cls-15" points="2580.76 295.65 2546.92 302.33 2562.66 289.65 2597.44 277.14 2580.76 295.65"/><polygon class="cls-15" points="2566.67 286.2 2598.87 275.42 2602.02 271.53 2569.29 283.89 2566.67 286.2"/><polygon class="cls-15" points="2608.39 263.31 2589.07 265.15 2599.78 253.87 2618.89 248.56 2608.39 263.31"/><polygon class="cls-15" points="2603.13 250.15 2620.32 246.4 2622.81 242.6 2605.68 247.26 2603.13 250.15"/><path class="cls-16" d="M2077.65,511c20.44,19.26,41.77,37.8,63.47,55.8s44,35.37,66.85,52,46.32,32.44,70.6,47,49.36,27.84,75.58,38.63A325.92,325.92,0,0,0,2394.42,718c6.85,1.84,13.81,3.24,20.8,4.44a185.2,185.2,0,0,0,21.15,2.13c14.16.53,28.32-1.49,42.22-4.44a233.12,233.12,0,0,0,40.58-12.67A239,239,0,0,0,2590,661.59a261.81,261.81,0,0,0,28.53-31,221.72,221.72,0,0,0,22.91-35.2,222.34,222.34,0,0,1-22.63,35.41,263.2,263.2,0,0,1-28.33,31.32,239.57,239.57,0,0,1-70.75,46.61A235.16,235.16,0,0,1,2479,721.78c-13.94,3.07-28.25,5.23-42.67,4.82a190,190,0,0,1-21.44-2c-7.08-1.16-14.12-2.52-21.06-4.32a327.48,327.48,0,0,1-40.71-13.41c-26.49-10.66-51.83-23.82-76.32-38.24s-48.17-30.15-71.26-46.61S2160,588.26,2138,570.39s-43.43-36.27-64.21-55.56Z" transform="translate(0 -388.84)"/><polygon class="cls-15" points="2641.33 217.04 2640.61 204.79 2642.11 204.61 2641.33 217.04"/><polygon class="cls-15" points="2627.88 220.34 2627.09 207.47 2628.58 207.29 2627.88 220.34"/><polygon class="cls-14" points="2129.24 259.31 2119.62 254.81 1982.86 275.6 1990.35 281.61 2129.24 259.31"/><polygon class="cls-14" points="2247.27 323.68 2245.2 322.24 2159.84 343.56 2162.75 346 2247.27 323.68"/><polygon class="cls-14" points="2212.72 357.87 2212.58 355.81 2314.9 347.91 2316.95 348.85 2212.72 357.87"/><polygon class="cls-14" points="2236.48 362.49 2238.17 360.37 2329.77 352.28 2330.38 353.29 2236.48 362.49"/><polygon class="cls-14" points="2331.28 373.89 2331.68 371.8 2390.69 365.75 2399.61 366.74 2331.28 373.89"/><polygon class="cls-17" points="1902.23 266.07 1868.13 102.37 1877.54 96.3 1896.32 192.42 1903.84 189.41 1925.67 260.71 1902.23 266.07"/><polygon class="cls-18" points="1875.94 97.34 1899.11 236.43 1896.9 240.75 1868.13 102.37 1875.94 97.34"/><polygon class="cls-18" points="1896.32 192.42 1904.56 256.26 1907.12 218.93 1903.84 189.41 1896.32 192.42"/><polygon class="cls-18" points="1909.97 259.63 1911.52 251.51 1918.51 247.39 1909.97 259.63"/><polygon class="cls-13" points="1872.1 143.74 1877.11 161.54 1893.61 158.09 1892.43 141.19 1882.22 141.87 1890.57 137.39 1889.78 133.01 1872.1 143.74"/><polygon class="cls-19" points="1902.23 266.07 1881.39 167.1 1877.52 167.36 1877.22 163.09 1880.44 162.58 1880.09 160.92 1877.11 161.54 1872.1 143.74 1875.98 141.39 1868.13 102.37 1877.54 96.3 1884.93 135.96 1889.78 133.01 1885.87 134.73 1878.06 95.48 1863.49 99.63 1875.67 141.05 1871.49 143.78 1876.82 162.49 1876.59 168.51 1880.6 167.85 1898.25 268.03 1902.23 266.07"/><polygon class="cls-13" points="1877.22 163.09 1877.52 167.36 1894.48 166.23 1894.08 160.41 1877.22 163.09"/><polygon class="cls-20" points="2057.75 253.33 2059.13 30.81 2071.41 24.44 2075.73 156.03 2087.09 157.54 2085.72 228.41 2057.75 253.33"/><polygon class="cls-18" points="2075.73 156.03 2060.82 232.53 2070.32 223.43 2087.09 157.54 2075.73 156.03"/><polygon class="cls-18" points="2071.41 24.44 2072.51 57.7 2060.08 221.99 2059.13 30.81 2071.41 24.44"/><polygon class="cls-21" points="2075.73 156.03 2072.2 42.79 2066.56 134.74 2070.08 185.01 2075.73 156.03"/><polygon class="cls-13" points="2052.95 123.91 2076.04 109.37 2077.34 128 2065.57 131.99 2075.47 131.05 2074.2 137.54 2055.64 138.78 2052.95 123.91"/><polygon class="cls-19" points="2059.64 229.45 2058.46 138.59 2055.64 138.78 2052.95 123.91 2058.58 120.36 2059.13 30.81 2071.41 24.44 2056.62 29.9 2056.42 118.32 2050.7 120.49 2053.08 141.48 2057.49 141.06 2056.11 229.94 2059.64 229.45"/><polygon class="cls-13" points="2502.26 351.57 2502.26 395.75 2501.57 457.18 2504.42 369.21 2504.42 366.74 2506.75 356.87 2505.17 431.13 2508.95 348.85 2502.26 351.57"/><polygon class="cls-13" points="2472.69 361.84 2473.69 388.47 2473.69 369.21 2475.78 368.18 2475.78 361.84 2472.69 361.84"/><polygon class="cls-13" points="2529.16 337.97 2527.54 354.53 2529.51 365.75 2532.81 336.82 2529.16 337.97"/><polygon class="cls-13" points="2208.1 232.53 2210.82 270.38 2212.72 254.44 2216.2 253.82 2216.2 296.57 2218.62 241.59 2208.1 232.53"/><polygon class="cls-13" points="2230.84 248.45 2232.55 293.41 2234.41 250.87 2230.84 248.45"/><polygon class="cls-13" points="2250.96 364.97 2253.14 409.85 2253.14 394.06 2256.4 473.48 2256.4 412.27 2257.49 405.57 2259.39 452.93 2259.39 366.74 2250.96 364.97"/><polygon class="cls-13" points="2264.77 367.11 2266.2 410.67 2268.64 368.18 2264.77 367.11"/><polygon class="cls-13" points="2127.73 165.61 2136.57 241.59 2140.38 184.23 2144.33 185.01 2144.33 217.81 2151.28 189.41 2154.46 201.35 2162.75 201.35 2167.51 206.91 2173.26 208.68 2127.73 165.61"/><polygon class="cls-13" points="2322.91 303.97 2330.38 313.04 2339.98 310.99 2352 315.04 2352 322.16 2355.55 319.11 2357.44 337.24 2358.58 318.75 2322.91 303.97"/><polygon class="cls-13" points="2591.16 284.11 2591.16 292.24 2593.1 281.95 2591.16 284.11"/><polygon class="cls-22" points="2357.23 374.36 2448.78 368.18 2406.53 368.18 2357.23 374.36"/><path class="cls-22" d="M2236.58,708.19s60.45,34.89,165.61,49.61l4.34-.79S2310.93,744.78,2236.58,708.19Z" transform="translate(0 -388.84)"/><path class="cls-22" d="M2101.83,717.59s75.46,26.33,149.16,37C2251,754.58,2176.89,741.73,2101.83,717.59Z" transform="translate(0 -388.84)"/><path class="cls-23" d="M3309.11,1075.79H.75V605.71c160.51-47.42,393.49-84.35,635.1,0,26,9.08,50.85,19.13,74.58,29.92,42.21,26,73.93,33.93,95.85,36.11,6.63.66,21.64,1.7,42.69,5.6a404.35,404.35,0,0,1,48.3,12.06l3.09,26.07h17.81l27.26,78q11.28,12.85,15.16,10.91,10.49-5.24-32.81-118.07l24.87-42.12L1212.94,684l8.24,10.74,95.6-6.14,11,18.92q3.35,17.64,6.7,35.3l175.77-21.69q-1.48-34-3-67.93l95.55-17.67q2.31,27.08,4.63,54.16,3.88-23.79,7.79-47.57c43.84,2.73,109.4,6.69,189.1,11C1996,663.38,2093.19,668.47,2160.57,666c69-2.56,157.37-14.72,331.34-38.92,113.75-15.83,206.23-29.8,265.92-39l20.67-25.73L3001.3,445V626.25L3309.11,455Z" transform="translate(0 -388.84)"/><ellipse class="cls-24" cx="508.69" cy="216.88" rx="11.98" ry="10.35"/><path class="cls-25" d="M503.07,605.71c0,2.68,2.52,4.85,5.62,4.85s5.61-2.17,5.61-4.85-2.51-4.85-5.61-4.85S503.07,603,503.07,605.71Z" transform="translate(0 -388.84)"/><path class="cls-26" d="M510,606a1.94,1.94,0,1,1-1.93-1.88A1.9,1.9,0,0,1,510,606Z" transform="translate(0 -388.84)"/><path class="cls-27" d="M1471.83,791.27c-281.27,40.4-474.49-84.55-725.86-44.49S.33,952.91.33,952.91v122.88H431.46S515.55,806.15,725.2,761.53c186-39.57,317.31-1.9,496,57.36S1471.83,791.27,1471.83,791.27Z" transform="translate(0 -388.84)"/><polygon class="cls-28" points="2512.31 512.96 2530.37 416.01 2534.2 414.41 2542.95 320.71 2546.39 315.38 2529.35 487.19 2541.37 492.37 2541.37 506.81 2512.31 512.96"/><polygon class="cls-28" points="2505.93 514.31 2505.29 492.37 2499.68 492.37 2492.2 517.21 2505.93 514.31"/><polygon class="cls-28" points="2800.73 526.46 2811.25 479.44 2814.74 479.44 2807.88 517.68 2812.65 521.59 2813.02 525.23 2800.73 526.46"/><polygon class="cls-28" points="2435.03 529.3 2431.46 512.96 2422.41 512.96 2420.76 532.65 2435.03 529.3"/><polygon class="cls-28" points="783.83 444.75 783.83 393.18 787.49 393.18 787.49 439.01 792.12 440.74 787.97 347.11 792.12 342.9 792.12 295.19 802.93 445.36 783.83 444.75"/><polygon class="cls-28" points="820.24 445.21 820.24 433.27 824.14 428.06 824.14 445.36 820.24 445.21"/><polygon class="cls-28" points="852.48 444.93 852.48 437.45 871.6 440.9 879.28 445.09 852.48 444.93"/><polygon class="cls-28" points="624.73 439.08 619.08 411.18 616 409.58 601.17 342.56 597.25 340.32 610.99 415.65 608.37 418.74 606.54 413.9 602.76 415.65 603.9 437.62 624.73 439.08"/><polygon class="cls-29" points="2499.68 492.37 2503.38 492.37 2502.85 514.96 2492.2 517.21 2499.68 492.37"/><path class="cls-29" d="M2513,897.94c0,.23,11.85-10.1,11.85-10.1l7.93-64.38-5.3,23.78-2-2.43,7.32-40.5-2.44.54Z" transform="translate(0 -388.84)"/><polygon class="cls-29" points="2529.35 487.19 2524.1 509.11 2529.35 506.64 2534.91 489.59 2529.35 487.19"/><polygon class="cls-29" points="2422.41 512.96 2427.14 512.96 2428.73 530.63 2420.76 532.65 2422.41 512.96"/><polygon class="cls-29" points="606.54 413.9 610.99 438.12 606.54 437.81 602.76 415.65 606.54 413.9"/><polygon class="cls-29" points="612.83 415.65 619.87 438.74 622.87 438.74 601.17 342.56 597.25 340.32 612.83 415.65"/><polygon class="cls-29" points="619.08 411.18 617.81 410.52 624.73 439.08 619.08 411.18"/><path class="cls-30" d="M3309.28,804.46s-129.17-40.6-301.59-22.35S2616.67,960.48,2461.4,962,2264.86,783.86,2100,771.73,1815.69,875.1,1815.69,875.1l138.86,40.36s54.3-114.92,174.32-106.87,198.16,137.57,307,177.76,237-4.76,469.14-46.46,402.27,47.67,402.27,47.67Z" transform="translate(0 -388.84)"/><polygon class="cls-19" points="1375.43 347.64 1369.85 330.19 1474.76 310.28 1665.93 308.61 1663.84 283.01 1746.26 273.2 1765.16 271.21 2121.83 208.03 2013.05 253.31 1458.96 409.85 909.81 420.08 1375.43 347.64"/><polygon class="cls-31" points="909.81 420.08 923.75 446.01 1654.93 461.12 996.88 427.83 909.81 420.08"/><polygon class="cls-32" points="3309.28 543.33 2247.22 529.06 2234.68 519.89 2006.9 492.37 1968.84 508.28 1824.08 482.53 1746.39 461.8 1827.19 457.72 1873.9 360.28 1890.92 367.41 1905.9 360.28 1924.36 312.38 1949.43 337.86 2007.95 336.84 2046.61 263.46 2066.46 263.46 2121.83 208.03 1760.32 279.03 1743.6 276.31 1668.37 284.46 1668.37 310.28 1651.31 314.36 909.81 420.08 945.34 429.87 1173.81 440.74 1654.93 461.12 865.93 444.81 0.85 449.92 0.33 686.95 3309.28 686.95 3309.28 543.33"/><polygon class="cls-33" points="2121.83 208.03 2037.45 247.23 1966.29 280.29 1942.78 291.22 1879.54 326.12 1690.88 303.63 1760.32 279.03 2121.83 208.03"/><polygon class="cls-34" points="2002.12 686.95 2127.29 646.56 2383.55 648.16 2686.77 628.44 2669.46 612.71 2695.37 610.59 3309.28 582.97 3309.11 604.84 2686.84 613.65 2672.38 613.83 2688.05 628.44 2696.5 640.62 2418.34 655.44 2335.26 655.44 2129.84 657.48 2059.03 686.95 2002.12 686.95"/><polygon class="cls-31" points="2006.9 492.37 2087.17 515.96 2192.77 540.04 1968.84 508.28 2006.9 492.37"/><polygon class="cls-35" points="1746.39 461.8 1671.26 458.32 1817.72 455.16 1865.55 355.72 1942.78 291.22 2121.83 208.03 2066.46 263.46 2046.61 263.46 2007.95 336.84 1949.43 337.86 1924.36 312.38 1910.47 358.68 1890.92 367.41 1873.9 360.28 1844.06 486.09 1824.08 482.53 1746.39 461.8"/><polygon class="cls-31" points="1674.72 456.76 1639.5 454.37 1626.54 459.68 1674.72 456.76"/><polygon class="cls-36" points="1675.72 285.97 1690.88 303.63 1729.73 306.87 1879.54 326.12 1863.97 326.98 1697.82 312.36 1668.37 310.28 1668.37 284.46 1675.72 285.97"/><polygon class="cls-37" points="1942.78 291.22 1936.58 285.97 1806.18 291.16 1966.29 280.29 1942.78 291.22"/><polygon class="cls-38" points="1979.04 235.5 2027 252.09 2037.45 247.23 2025.71 247.23 1979.04 235.5"/><polygon class="cls-33" points="1668.37 284.46 1681.49 291.22 1743.6 276.31 1668.37 284.46"/><polygon class="cls-39" points="1668.37 310.28 1879.54 335.76 1865.55 355.72 1817.72 455.16 1000.27 408.53 1668.37 310.28"/><polygon class="cls-31" points="529.49 447.49 573.39 447.35 903.63 499.7 977.56 496.5 997.1 502.91 1068.68 498.2 1002.02 496.5 977.99 493.65 902.5 488.55 515.55 431.44 529.49 447.49"/><polygon class="cls-40" points="515.55 431.44 624.73 439.08 649.29 415.65 713.08 435.3 716.69 446.11 723.61 440.6 796.45 445.41 768.92 450.2 620.56 446.94 515.55 431.44"/><polygon class="cls-29" points="649.29 415.65 662.44 435.56 726.78 448.17 713.08 435.3 649.29 415.65"/><polygon class="cls-29" points="723.61 440.6 745.25 447.49 771.13 449.82 795.63 445.56 723.61 440.6"/><polygon class="cls-29" points="663.23 446 672.28 442.69 699.01 447.49 663.23 446"/><polygon class="cls-29" points="624.73 439.08 646.77 443.45 578.33 443.45 515.55 431.44 624.73 439.08"/><polygon class="cls-41" points="903.63 499.7 902.5 488.55 977.99 493.65 977.56 496.5 903.63 499.7"/><polygon class="cls-41" points="997.1 502.91 1002.02 496.5 1068.68 498.2 997.1 502.91"/><polygon class="cls-41" points="578.33 443.45 581.16 448.58 573.39 447.35 529.49 447.49 515.55 431.44 578.33 443.45"/><polygon class="cls-41" points="645.61 447.49 646.77 443.45 624.73 439.08 649.29 415.65 662.44 435.56 672.28 437.49 672.28 442.69 663.23 446 671.41 446.51 671.32 448.05 645.61 447.49"/><polygon class="cls-42" points="1372.91 333.01 1654.58 311.56 1473.64 313.56 1372.91 333.01"/><polygon class="cls-43" points="1372.91 333.01 1377.28 353.43 1631.91 317.55 1668.37 310.28 1372.91 333.01"/><polygon class="cls-41" points="1502.07 336.21 1499.63 323.26 1590.12 316.3 1588.09 323.53 1502.07 336.21"/><polygon class="cls-41" points="1601.55 321.82 1602.85 315.32 1634.24 312.91 1631.91 317.55 1601.55 321.82"/><polygon class="cls-40" points="1199.97 443.07 1202.35 435.61 1237.89 425.13 1271.92 444.89 1199.97 443.07"/><polygon class="cls-40" points="1051.1 435.61 1085.96 411.88 1102.26 405.67 1173.81 440.74 1051.1 435.61"/><polygon class="cls-44" points="1102.26 405.67 1085.96 411.88 1098.39 432.96 1170.29 439.01 1102.26 405.67"/><polygon class="cls-44" points="1072.55 431.73 1079.6 426.57 1093.7 435.01 1072.55 431.73"/><polygon class="cls-44" points="1237.89 425.13 1221.17 430.06 1229.53 439.01 1271.92 444.89 1237.89 425.13"/><polygon class="cls-44" points="1190.57 442.83 1201.8 440.22 1216.3 443.48 1190.57 442.83"/><polygon class="cls-45" points="1377.28 353.43 1412.31 377.01 1593.37 383.47 1606.06 395.56 1836.73 415.65 1838.96 411 1617.69 395.55 1606.2 393.77 1591.7 381.54 1421.5 375.43 1409.64 373.39 1377.28 353.43"/><polygon class="cls-41" points="2127.29 646.56 2129.84 657.48 2402.19 655.44 2389.77 646.56 2127.29 646.56"/><polygon class="cls-41" points="2422.41 655.22 2422.41 644.96 2453.78 643.6 2457.59 653.35 2422.41 655.22"/><polygon class="cls-41" points="2539.78 649.41 2532.17 638.5 2594.88 634.42 2606.91 644.96 2539.78 649.41"/><polygon class="cls-41" points="2669.46 612.71 2672.38 613.83 3309.11 604.84 3309.28 582.97 2669.46 612.71"/><polygon class="cls-41" points="2377.23 594.29 2377.23 604.84 2436.63 602.02 2436.63 596.8 2377.23 594.29"/><polygon class="cls-46" points="2688.05 628.44 2669.46 612.71 2396.63 611.11 2098.32 640.62 2132.28 647.29 2389.77 646.56 2688.05 628.44"/><polygon class="cls-41" points="2037.76 501.44 2035.28 517.71 2082.99 524.48 2087.17 515.96 2037.76 501.44"/><polygon class="cls-41" points="2098.32 526.65 2103.73 519.74 2192.77 540.04 2098.32 526.65"/><polygon class="cls-21" points="1817.72 455.16 1826.37 482.94 1746.39 461.8 1746.26 456.7 1817.72 455.16"/><polygon class="cls-21" points="1966.29 280.29 1966.52 289.56 1929.83 302.03 1942.78 291.22 1936.58 285.97 1966.29 280.29"/><polygon class="cls-21" points="2027 252.09 2026.14 271.98 2032.67 271.98 2037.45 247.23 2025.71 247.23 2017.82 245.25 2018.92 249.29 2027 252.09"/><polygon class="cls-21" points="2046.61 263.46 2039.12 253.31 2066.46 263.46 2046.61 263.46"/><polygon class="cls-42" points="1870.02 356.36 1929.83 302.03 2020.48 271.21 2113.85 283.76 2084.71 302.48 1979.87 330.33 1870.02 356.36"/><polygon class="cls-47" points="2113.85 283.76 2090.34 328.22 2041.3 397.16 2022.6 398.76 2018.82 350.4 1969.03 449.34 1922.44 484.26 1886.09 469.51 1870.02 356.36 2084.71 302.48 2113.85 283.76"/><polygon class="cls-41" points="1870.02 356.36 1960.68 335.43 1969.03 449.34 1922.44 484.26 1901.22 395.75 1912.05 464.86 1916.47 481.84 1886.09 469.51 1870.02 356.36"/><polygon class="cls-41" points="2018.82 350.4 2017.82 318.1 2080.8 303.63 2075.91 338.77 2041.3 397.16 2022.6 398.76 2018.82 350.4"/><polygon class="cls-48" points="2044.11 357.74 2072.7 339.4 2136.57 340.42 2090.34 356.14 2044.11 357.74"/><polygon class="cls-49" points="2044.11 357.74 2048.86 397.55 2078.78 417.67 2094.65 412.56 2113.64 362.88 2130.11 351.77 2136.57 340.42 2044.11 357.74"/><polygon class="cls-41" points="2044.11 357.74 2093.06 348.57 2090.34 413.94 2088.75 372.45 2078.78 417.67 2048.86 397.55 2044.11 357.74"/><polygon class="cls-41" points="2113.64 362.88 2101.83 361.14 2130.11 351.77 2113.64 362.88"/><polygon class="cls-36" points="2017.47 319.35 1942.38 303.63 2024.79 317.46 2017.47 319.35"/><polygon class="cls-50" points="1922.44 484.26 1966.29 413.91 1998.75 390.28 1969.03 449.34 1922.44 484.26"/><polygon class="cls-50" points="2113.64 362.88 2101.83 361.14 2130.11 351.77 2113.64 362.88"/><polygon class="cls-50" points="2041.3 397.16 2022.6 398.76 2046.39 382.42 2047.1 389 2041.3 397.16"/><polygon class="cls-50" points="2078.78 417.67 2088.75 372.45 2090.34 413.94 2092.07 372.45 2106.95 362.88 2113.64 362.88 2094.65 412.56 2078.78 417.67"/><polygon class="cls-50" points="1933.11 460.42 1953.09 427.47 1941.19 435.61 1933.11 460.42"/><polygon class="cls-41" points="1760.58 317.88 1767.92 311.78 1879.54 326.12 1863.97 326.98 1760.58 317.88"/><polygon class="cls-41" points="1756.89 317.56 1760.58 310.83 1746.48 309.02 1746.48 316.64 1756.89 317.56"/><polygon class="cls-29" points="783.83 526.83 1051.1 534.6 773.66 519.89 783.83 526.83"/><polygon class="cls-29" points="1068.68 620.75 669.18 666.65 893.55 671.03 1068.68 620.75"/><polygon class="cls-29" points="989.88 661.25 1033.45 643.55 1020.91 652.4 989.88 661.25"/><polygon class="cls-51" points="0.33 461.13 477.06 481.41 773.66 519.89 783.83 526.83 1051.1 534.6 1371.32 570.11 1082.79 620.11 669.18 666.65 0.33 686.95 0.33 461.13"/><polygon class="cls-41" points="1051.1 534.6 1049.51 623.86 1226.57 595.19 1231.1 554.56 1231.1 594.41 1371.32 570.11 1051.1 534.6"/><polygon class="cls-41" points="783.83 526.83 765.75 654.79 676.68 665.81 710.5 511.7 742.04 516.86 710.5 638.25 750.18 515.96 773.66 519.89 783.83 526.83"/><polygon class="cls-41" points="640.76 665.81 699.01 510.21 574.94 506.13 529.19 673.88 640.76 665.81"/><polygon class="cls-41" points="824.16 649.21 902.5 526.83 827.31 648.86 824.16 649.21"/><polygon class="cls-29" points="781.78 549.62 883.21 558.13 852.48 564.39 781.78 549.62"/><polygon class="cls-41" points="852.48 564.39 813.89 650.03 765.75 654.79 781.78 549.62 852.48 564.39"/><polygon class="cls-29" points="815.24 566.4 875.85 581.91 921.3 609.64 836.87 584.87 815.24 566.4"/><polygon class="cls-29" points="847.88 594.26 830.64 587.01 805.35 584.87 847.88 594.26"/><polygon class="cls-29" points="1105.43 577.09 1321.26 578.16 1268.75 588.75 1105.43 577.09"/><polygon class="cls-29" points="1078.38 583 1165.8 588.1 1137.06 593.04 1078.38 583"/><polygon class="cls-29" points="331.13 488.55 475.66 488.55 574.94 506.13 414.18 506.13 331.13 488.55"/><polygon class="cls-29" points="583.82 506.13 646.77 511.7 620.91 515.82 583.82 506.13"/><polygon class="cls-29" points="526.14 526.83 538.35 526.83 541.52 534.6 515.55 534.6 526.14 526.83"/><polygon class="cls-40" points="2418.34 532.83 2745.62 463.62 2776.92 481.41 2781.82 535.69 2790.47 526.83 2835.57 523.63 2895.69 543.33 2418.34 532.83"/><polygon class="cls-29" points="2745.62 463.62 2761.05 477.84 2723.67 532.65 2650.16 516.21 2425.4 531.34 2745.62 463.62"/><polygon class="cls-29" points="2551.79 532.65 2651.31 519.89 2680.56 526.83 2551.79 532.65"/><polygon class="cls-29" points="2790.47 526.83 2773.17 540.04 2822.93 537.73 2835.57 523.63 2790.47 526.83"/><polygon class="cls-29" points="2827.89 540.04 2852.18 536.45 2872.56 540.04 2827.89 540.04"/><polygon class="cls-29" points="2734.39 536.45 2764.94 523.63 2773.17 532.65 2734.39 536.45"/><polygon class="cls-41" points="2550.39 535.74 2551.79 532.65 2581.18 528.88 2581.18 520.85 2418.34 532.83 2550.39 535.74"/><polygon class="cls-41" points="2723.67 532.65 2723.67 539.55 2730.98 539.76 2734.39 536.45 2764.94 523.63 2773.17 532.65 2769.47 540.95 2773.17 540.04 2781.63 533.58 2776.92 481.41 2761.05 477.84 2723.67 532.65"/><polygon class="cls-41" points="2823.58 541.75 2822.93 537.73 2835.57 523.63 2868.27 534.35 2857.38 537.37 2852.18 536.45 2827.89 540.04 2827.89 541.84 2823.58 541.75"/><polygon class="cls-41" points="2870.21 542.77 2872.56 540.04 2895.69 543.33 2870.21 542.77"/><polygon class="cls-31" points="1371.32 570.11 1484.03 551.41 1778.62 532.65 1968.84 508.28 1774.83 543.33 1479.51 557.35 1371.32 570.11"/><polygon class="cls-41" points="1778.62 532.65 1774.83 543.33 1676.91 547.98 1675.85 539.2 1778.62 532.65"/><polygon class="cls-41" points="1670.08 547.98 1662.8 540.03 1636.87 541.68 1644.01 549.54 1670.08 547.98"/><polygon class="cls-41" points="1632.5 549.54 1625.57 542.4 1614.64 542.4 1626.17 550.39 1632.5 549.54"/><polygon class="cls-28" points="3309.11 560.88 2477.87 598.11 2068.13 585.12 2005.09 616.91 1675.72 634.22 1153.48 686.95 1286.93 686.95 1654.93 638.25 1800.22 632.15 3309.11 573.77 3309.11 560.88"/><polygon class="cls-29" points="2068.13 585.12 1898.19 560.37 2020.14 540.04 2226.06 540.04 2494.48 594.29 2068.13 585.12"/><polygon class="cls-29" points="2005.09 616.91 1877.96 578.75 1528.95 628.53 1590.12 638.22 1657.57 635.77 2005.09 616.91"/><polygon class="cls-40" points="1579.02 638.25 1556.51 612.71 1522.1 612.71 1432.03 658.82 1579.02 638.25"/><polygon class="cls-40" points="1419.92 658.82 1405.3 650.68 1357.13 658.82 1303.31 671.82 1419.92 658.82"/><polygon class="cls-29" points="1556.51 612.71 1533.24 638.25 1439.9 654.79 1522.1 612.71 1556.51 612.71"/><polygon class="cls-29" points="1545.06 637.42 1564.93 630.64 1574.04 635.77 1545.06 637.42"/><polygon class="cls-29" points="1405.3 650.68 1414.84 656 1359.44 663.25 1306.58 671.03 1357.13 658.82 1405.3 650.68"/><polygon class="cls-41" points="2127.29 586.39 2140.61 616.04 2227.35 611.93 2217.64 589.86 2127.29 586.39"/><polygon class="cls-41" points="2235.03 590.41 2240.58 611.3 2252.12 610.76 2252.12 590.95 2235.03 590.41"/><polygon class="cls-41" points="2053.18 620.18 2024.59 607.08 2005.09 616.91 1657.57 635.77 1660.01 638.25 2053.18 620.18"/><polygon class="cls-41" points="1533.24 638.25 1539.2 643.82 1498.21 649.56 1495.29 644.98 1533.24 638.25"/><polygon class="cls-41" points="1879.26 628.17 1879.26 623.74 1803.5 627.58 1796.54 632.51 1879.26 628.17"/><polygon class="cls-41" points="1888.67 627.74 1896.84 622.66 1960.65 619.25 1956.24 624.63 1888.67 627.74"/><polygon class="cls-52" points="1914.88 562.8 2044.11 578.75 2098.32 585.77 2053.18 592.66 2032.5 581.3 1914.88 562.8"/><polygon class="cls-52" points="2115.97 586.15 2151.28 583.08 2196.33 587.88 2139.6 587.88 2115.97 586.15"/><polygon class="cls-52" points="1590.12 638.22 1572.45 644.64 1657.57 635.77 1590.12 638.22"/><polygon class="cls-52" points="1520.26 640.21 1537.62 634.03 1535.33 640.21 1520.26 640.21"/><polygon class="cls-52" points="1401.6 657.73 1414.84 656 1416.4 656.87 1401.6 657.73"/><polygon class="cls-29" points="1484.03 551.41 1672.84 524.48 1845.08 524.48 1778.62 532.65 1484.03 551.41"/><polygon class="cls-29" points="1473.41 544.78 1518.7 537.81 1467.61 532.65 1403.71 546.42 1473.41 544.78"/><polygon class="cls-29" points="1749.43 515.96 1767.02 514.36 1795.88 518.87 1755.79 518.87 1749.43 515.96"/><polygon class="cls-29" points="1803.7 518.87 1968.84 508.28 1842.47 523.63 1803.7 518.87"/><polygon class="cls-41" points="945.34 429.87 945.34 446.45 923.75 446.01 909.81 420.08 945.34 429.87"/><polygon class="cls-41" points="998.68 447.56 1007.15 433.27 1053.5 435.01 1045.82 448.53 998.68 447.56"/><polygon class="cls-53" points="1721.89 457.02 1831.04 427.47 1817.72 455.16 1721.89 457.02"/><polygon class="cls-53" points="1710.49 457.02 1739.11 446.86 1704.49 441.48 1679.9 457.02 1710.49 457.02"/><polygon class="cls-53" points="1428.25 433.92 1423.09 429.53 1425.67 421.8 1432.03 433.16 1428.25 433.92"/><polygon class="cls-53" points="1432.03 442.25 1435.2 439.01 1447.6 440.6 1434.48 448.6 1432.03 442.25"/><polygon class="cls-53" points="1795.88 382.72 1805.28 373.13 1820.46 375.41 1806.87 387.89 1795.88 382.72"/><polygon class="cls-53" points="1627.75 384.01 1625.57 373.81 1637.92 367.56 1632.5 386.29 1627.75 384.01"/><polygon class="cls-53" points="1625.57 369.18 1623.98 366.51 1627.75 364.47 1627.75 367.56 1625.57 369.18"/><polygon class="cls-53" points="1665.93 386.78 1671.26 382.72 1684.39 384.54 1670.08 391.48 1665.93 386.78"/><polygon class="cls-53" points="1116.84 637.1 1122.16 633.04 1135.29 634.86 1120.98 641.8 1116.84 637.1"/><polygon class="cls-53" points="1495.33 512.64 1500.66 508.58 1513.79 510.4 1499.48 517.33 1495.33 512.64"/><polygon class="cls-53" points="1553.13 356.36 1549.26 353.15 1555.03 347.64 1556.51 350.4 1553.13 356.36"/><polygon class="cls-53" points="2002.37 640.18 1998.5 636.98 2004.27 631.46 2005.75 634.22 2002.37 640.18"/><polygon class="cls-53" points="1338.79 510.47 1334.92 507.27 1340.69 501.75 1342.17 504.51 1338.79 510.47"/><polygon class="cls-53" points="1842.47 306.87 1851.86 306.13 1857.04 305.72 1849.76 311.49 1840.89 310.28 1842.47 306.87"/><polygon class="cls-53" points="1491.79 654.79 1558.1 650.68 1611.47 654.79 1510.6 660.86 1491.79 654.79"/><polygon class="cls-53" points="1368.5 608.49 1377.28 601.96 1393.95 598.76 1384.14 607.08 1368.5 608.49"/><polygon class="cls-53" points="1268.75 531.05 1282.37 524.48 1315.29 534.6 1296.93 539.2 1268.75 531.05"/><polygon class="cls-54" points="1371.32 570.11 1402.13 558.62 1436.07 562.47 1371.32 570.11"/><polygon class="cls-29" points="2006.9 492.37 2192.77 540.04 2211.89 540.04 2234.68 519.89 2006.9 492.37"/><path class="cls-29" d="M1968.84,897.12l89.73,12.73c.8.11-54.8,3.46-54.8,3.46Z" transform="translate(0 -388.84)"/><polygon class="cls-29" points="2247.22 529.06 2226.06 540.04 2393.19 549.54 2560.41 535.74 2420.76 532.65 2247.22 529.06"/><polygon class="cls-55" points="1082.79 620.11 1033.45 643.55 1271.92 612.71 1455.64 560.16 1371.32 570.11 1082.79 620.11"/><polygon class="cls-55" points="1180.77 652.4 1264.26 638.25 1391.72 655.97 1241.76 672.77 1180.77 652.4"/><polygon class="cls-55" points="1275.86 630.64 1282.37 626.23 1303.31 623.86 1292.02 633.04 1275.86 630.64"/><polygon class="cls-55" points="1447.6 616.71 1454.06 612.71 1473.64 612.71 1461.82 620.75 1447.6 616.71"/><polygon class="cls-55" points="1841.52 564.35 1847.98 560.34 1867.57 560.34 1855.75 568.39 1841.52 564.35"/><polygon class="cls-55" points="1923.55 668.55 1930.01 664.55 1949.6 664.55 1937.78 672.59 1923.55 668.55"/><polygon class="cls-52" points="1026.09 533.28 1090.27 539.2 1062.88 531.05 1026.09 533.28"/><polygon class="cls-52" points="1091.76 423.17 1126.07 434.36 1098.39 432.96 1091.76 423.17"/><polygon class="cls-52" points="1753.48 534.25 1806.87 529.03 1778.05 534.25 1753.48 534.25"/><polygon class="cls-52" points="1745.16 534.78 1708.65 537.11 1728.62 534.25 1745.16 534.78"/><polygon class="cls-56" points="1792.71 455.65 1820.46 447.49 1820.46 463.33 1792.71 455.65"/><polygon class="cls-57" points="744.41 465.22 809.12 457.38 1153.48 472.21 1183.91 488.55 902.5 488.55 744.41 465.22"/><polygon class="cls-57" points="1000.27 494.13 1181.21 490.59 1235.94 499.7 1051.1 497.75 1000.27 494.13"/><polygon class="cls-57" points="1277.25 444.89 1334.92 433.27 1520.29 454.31 1277.25 444.89"/><polygon class="cls-57" points="1786.32 508.28 1523.68 499.7 1262.68 457.38 1752.11 463.33 1824.08 482.53 1786.32 508.28"/><polygon class="cls-58" points="3309.28 629.2 2347.52 657.48 2087.17 686.95 3309.28 686.95 3309.28 629.2"/><polygon class="cls-41" points="414.18 506.13 394.18 680.84 0.33 686.95 0.33 461.13 380.83 471.71 379.81 488.55 334.07 488.55 357.83 494.2 344.52 649.21 364.4 495.6 414.18 506.13"/><polygon class="cls-41" points="410.37 488.55 414.18 475.07 442.73 477.01 434.63 488.55 410.37 488.55"/><path class="cls-59" d="M860.86,916.6l242.26-17.88s-29.53,11.45-31.66,14,36.65,5.29,62.19,1.11S1241,898,1244.26,900s-83.83,31.55-83.83,31.55l3.17,33.92-10.74,2,2.36,12.69-26.64-4.56-5.45,29.37L860.7,1036.13,872.62,977l4.6-11.66-4.6-16.21,12.24-2.26Z" transform="translate(0 -388.84)"/><polygon class="cls-29" points="169.31 630.64 288.69 594.29 335.65 593.04 169.31 630.64"/><polygon class="cls-29" points="184.22 638.22 251.59 630.64 234.85 641.8 158.51 641.8 184.22 638.22"/><polygon class="cls-60" points="234.85 641.8 228.74 679.89 237.97 679.74 251.59 630.64 234.85 641.8"/><polygon class="cls-34" points="2959.94 686.95 3309.28 641.91 3309.28 656.44 2991.33 686.95 2959.94 686.95"/><polygon class="cls-61" points="3309.28 641.91 2959.94 686.95 2696.7 686.95 3309.28 629.2 3309.28 641.91"/><polygon class="cls-41" points="3137.32 672.94 3134.61 664.43 3243.03 649.41 3249.53 661.17 3137.32 672.94"/><polygon class="cls-62" points="1369.71 569.51 1364.2 542.62 1364.2 513.03 1372.47 566.82 1375.23 550.68 1375.23 569.51 1369.71 569.51"/><polygon class="cls-62" points="1767.44 409.49 1772.12 382.14 1772.12 352.56 1763.84 406.35 1761.09 390.21 1761.09 409.04 1767.44 409.49"/><polygon class="cls-62" points="950.61 425.06 945.1 446.58 995.38 447.36 997.48 417 991.97 438.51 991.97 392.79 986.46 387.41 989.39 438.91 980.94 441.2 978.18 427.75 978.18 441.2 949.73 444.18 950.61 425.06"/><polygon class="cls-62" points="1611.09 569.93 1595.31 619.04 1703.97 603.91 1709.77 552.95 1698.16 598.24 1698.16 501.99 1686.55 490.67 1692.73 599.09 1674.94 603.91 1669.14 575.6 1669.14 603.91 1609.24 610.17 1611.09 569.93"/><path class="cls-62" d="M1717.05,990.62s-4.52-21.74-4.52-37.87,11-80.69,11-80.69L1718,939.3l5.52-13.45-3.29,64.77Z" transform="translate(0 -388.84)"/></g></g></g></g></svg>