<svg width="1850" height="408" viewBox="0 0 1850 408" fill="none" xmlns="http://www.w3.org/2000/svg">
<path fill-rule="evenodd" clip-rule="evenodd" d="M1849.83 367.69L1574.3 357C1574.3 357 1495.53 321.89 1398.97 375.39C1398.97 375.39 1543.14 129.79 1238.54 198.27C1238.54 198.27 1256.26 107.1 1192.16 113.63C1077.05 125.37 961.16 343.16 961.16 343.16C961.16 343.16 1075.09 12.5697 870 5.15967C613.11 -4.13033 438 271.72 438 271.72C438 271.72 403.55 238 360.82 284.93C360.82 284.93 283.71 280.19 143.82 393.93L-69 408C-69 408 1417.52 393.45 1849.83 367.69Z" fill="url(#paint0_linear_85_25)"/>
<path style="mix-blend-mode:multiply" opacity="0.4" fill-rule="evenodd" clip-rule="evenodd" d="M-69 408C-69 408 1318.3 351.13 1849.83 367.72C1849.83 367.69 714.76 408 -69 408Z" fill="url(#paint1_linear_85_25)"/>
<path fill-rule="evenodd" clip-rule="evenodd" d="M1217.11 113.61C1162.46 68.6599 1098.97 35.6975 1030.76 16.8598C1006.02 10.0798 886.52 -20.6302 745.13 22.8598C555.13 81.2598 461.13 231.92 437.97 271.74C516.89 246.9 577.31 249.29 617.06 255.74C637.71 259.09 670.3 268.02 735.47 285.88C793.19 301.7 822.04 309.6 833.78 314.39C893.78 338.84 917.94 363.78 955.14 355.13C972.14 351.13 983.53 342.13 991.14 335.83C1062.05 277.25 1196.5 135.4 1217.11 113.61Z" fill="url(#paint2_linear_85_25)"/>
<path fill-rule="evenodd" clip-rule="evenodd" d="M430.69 286.19C430.69 286.19 512.19 255.59 599.01 271.72C685.83 287.85 821.37 323.51 821.37 323.51C821.37 323.51 546.05 325.79 430.69 286.19Z" fill="url(#paint3_linear_85_25)"/>
<path fill-rule="evenodd" clip-rule="evenodd" d="M260.59 391.5C260.59 391.5 388.16 319.61 521.93 323.5C655.7 327.39 816.05 364.65 816.05 364.65L260.59 391.5Z" fill="url(#paint4_linear_85_25)"/>
<path fill-rule="evenodd" clip-rule="evenodd" d="M143.82 393.93C143.82 393.93 218.35 324.82 264.72 297.7C311.09 270.58 423.6 294 423.6 294C423.6 294 299.39 391.5 143.82 393.93Z" fill="url(#paint5_linear_85_25)"/>
<path fill-rule="evenodd" clip-rule="evenodd" d="M360.82 284.93C360.82 284.93 379.59 262.86 402.82 260.24C426.05 257.62 438 271.72 438 271.72C427.577 278.011 416.108 282.377 404.14 284.61C385 288 360.82 284.93 360.82 284.93Z" fill="url(#paint6_linear_85_25)"/>
<path fill-rule="evenodd" clip-rule="evenodd" d="M742.52 336.46C742.52 336.46 819.39 322.21 833.77 349.7C833.77 349.7 769 351.19 742.52 336.46Z" fill="url(#paint7_linear_85_25)"/>
<path fill-rule="evenodd" clip-rule="evenodd" d="M955.14 355.11C955.14 355.11 1048.14 167.48 1153.58 119C1259.02 70.5196 1238.58 198.25 1238.58 198.25C1238.58 198.25 1171.3 319.29 955.14 355.11Z" fill="url(#paint8_linear_85_25)"/>
<path fill-rule="evenodd" clip-rule="evenodd" d="M1057 364.66C1057 364.66 927.3 356.66 742.5 371.16C742.52 371.16 945.84 378.5 1057 364.66Z" fill="url(#paint9_linear_85_25)"/>
<path fill-rule="evenodd" clip-rule="evenodd" d="M1097.64 349.74C1097.64 349.74 1254.9 184.2 1341.39 184.2C1469.73 184.2 1425.27 313.49 1425.27 313.49C1425.27 313.49 1286.33 363.68 1097.64 349.74Z" fill="url(#paint10_linear_85_25)"/>
<path fill-rule="evenodd" clip-rule="evenodd" d="M993.67 352.19C993.67 352.19 1065.67 326.35 1104.29 323.54C1104.29 323.54 1104 363.59 993.67 352.19Z" fill="url(#paint11_linear_85_25)"/>
<path fill-rule="evenodd" clip-rule="evenodd" d="M1228 367.78C1228 367.78 1339.63 341.34 1389.68 344.69C1439.73 348.04 1494 365.1 1494 365.1L1228 367.78Z" fill="url(#paint12_linear_85_25)"/>
<path fill-rule="evenodd" clip-rule="evenodd" d="M1457.12 352.19C1457.12 352.19 1485.78 360.08 1513.25 362.45C1540.72 364.82 1604.94 364.66 1604.94 364.66C1604.94 364.66 1534.32 332.1 1457.12 352.19Z" fill="url(#paint13_linear_85_25)"/>
<defs>
<linearGradient id="paint0_linear_85_25" x1="890.41" y1="407.97" x2="890.41" y2="4.92967" gradientUnits="userSpaceOnUse">
<stop stop-color="#545AA4"/>
<stop offset="0.54" stop-color="#575EA7"/>
<stop offset="1" stop-color="#5F68AD"/>
</linearGradient>
<linearGradient id="paint1_linear_85_25" x1="-69" y1="386.31" x2="1849.83" y2="386.31" gradientUnits="userSpaceOnUse">
<stop stop-color="#C17DB2"/>
<stop offset="1" stop-color="#974577"/>
</linearGradient>
<linearGradient id="paint2_linear_85_25" x1="847.02" y1="-23.8802" x2="807.48" y2="415.66" gradientUnits="userSpaceOnUse">
<stop stop-color="#6B69AD"/>
<stop offset="0.36" stop-color="#6D6DB0"/>
<stop offset="0.74" stop-color="#747AB9"/>
<stop offset="1" stop-color="#7B87C2"/>
</linearGradient>
<linearGradient id="paint3_linear_85_25" x1="654.15" y1="-7.72026" x2="620.09" y2="370.78" gradientUnits="userSpaceOnUse">
<stop stop-color="#6B69AD"/>
<stop offset="0.36" stop-color="#6D6DB0"/>
<stop offset="0.74" stop-color="#747AB9"/>
<stop offset="1" stop-color="#7B87C2"/>
</linearGradient>
<linearGradient id="paint4_linear_85_25" x1="578.57" y1="-69.27" x2="538.77" y2="373.12" gradientUnits="userSpaceOnUse">
<stop stop-color="#6B69AD"/>
<stop offset="0.36" stop-color="#6D6DB0"/>
<stop offset="0.74" stop-color="#747AB9"/>
<stop offset="1" stop-color="#7B87C2"/>
</linearGradient>
<linearGradient id="paint5_linear_85_25" x1="323.98" y1="-103.58" x2="281.81" y2="365.11" gradientUnits="userSpaceOnUse">
<stop stop-color="#6B69AD"/>
<stop offset="0.36" stop-color="#6D6DB0"/>
<stop offset="0.74" stop-color="#747AB9"/>
<stop offset="1" stop-color="#7B87C2"/>
</linearGradient>
<linearGradient id="paint6_linear_85_25" x1="428.92" y1="-49.8503" x2="391.62" y2="364.79" gradientUnits="userSpaceOnUse">
<stop stop-color="#6B69AD"/>
<stop offset="0.36" stop-color="#6D6DB0"/>
<stop offset="0.74" stop-color="#747AB9"/>
<stop offset="1" stop-color="#7B87C2"/>
</linearGradient>
<linearGradient id="paint7_linear_85_25" x1="819.87" y1="-9.58039" x2="784.67" y2="381.74" gradientUnits="userSpaceOnUse">
<stop stop-color="#6B69AD"/>
<stop offset="0.36" stop-color="#6D6DB0"/>
<stop offset="0.74" stop-color="#747AB9"/>
<stop offset="1" stop-color="#7B87C2"/>
</linearGradient>
<linearGradient id="paint8_linear_85_25" x1="1121.97" y1="-1.5604" x2="1085.4" y2="404.99" gradientUnits="userSpaceOnUse">
<stop stop-color="#6B69AD"/>
<stop offset="0.36" stop-color="#6D6DB0"/>
<stop offset="0.74" stop-color="#747AB9"/>
<stop offset="1" stop-color="#7B87C2"/>
</linearGradient>
<linearGradient id="paint9_linear_85_25" x1="947.86" y1="-166.68" x2="897.08" y2="397.85" gradientUnits="userSpaceOnUse">
<stop stop-color="#6B69AD"/>
<stop offset="0.36" stop-color="#6D6DB0"/>
<stop offset="0.74" stop-color="#747AB9"/>
<stop offset="1" stop-color="#7B87C2"/>
</linearGradient>
<linearGradient id="paint10_linear_85_25" x1="1292.82" y1="3.89972" x2="1255.69" y2="416.63" gradientUnits="userSpaceOnUse">
<stop stop-color="#6B69AD"/>
<stop offset="0.36" stop-color="#6D6DB0"/>
<stop offset="0.74" stop-color="#747AB9"/>
<stop offset="1" stop-color="#7B87C2"/>
</linearGradient>
<linearGradient id="paint11_linear_85_25" x1="1081.95" y1="-28.5504" x2="1043.2" y2="402.19" gradientUnits="userSpaceOnUse">
<stop stop-color="#6B69AD"/>
<stop offset="0.36" stop-color="#6D6DB0"/>
<stop offset="0.74" stop-color="#747AB9"/>
<stop offset="1" stop-color="#7B87C2"/>
</linearGradient>
<linearGradient id="paint12_linear_85_25" x1="1397.14" y1="-35.31" x2="1355.65" y2="425.79" gradientUnits="userSpaceOnUse">
<stop stop-color="#6B69AD"/>
<stop offset="0.36" stop-color="#6D6DB0"/>
<stop offset="0.74" stop-color="#747AB9"/>
<stop offset="1" stop-color="#7B87C2"/>
</linearGradient>
<linearGradient id="paint13_linear_85_25" x1="1561.15" y1="23.6096" x2="1524.96" y2="425.89" gradientUnits="userSpaceOnUse">
<stop stop-color="#6B69AD"/>
<stop offset="0.36" stop-color="#6D6DB0"/>
<stop offset="0.74" stop-color="#747AB9"/>
<stop offset="1" stop-color="#7B87C2"/>
</linearGradient>
</defs>
</svg>
